<mxfile host="Electron" agent="Mozilla/5.0 (Windows NT 10.0; Win64; x64) AppleWebKit/537.36 (KHTML, like Gecko) draw.io/23.0.2 Chrome/120.0.6099.109 Electron/28.1.0 Safari/537.36" modified="2024-09-21T07:38:15.382Z" etag="y1UV-tKUE1lmzcfsKz9x" version="23.0.2" type="device">
  <diagram name="Page-1" id="AHB2gIiTxnfWn_0bQ7DR">
    <mxGraphModel dx="1350" dy="1404" grid="1" gridSize="10" guides="1" tooltips="1" connect="1" arrows="1" fold="1" page="1" pageScale="1" pageWidth="850" pageHeight="1100" background="#ffffff" math="0" shadow="0">
      <root>
        <mxCell id="0" />
        <mxCell id="1" parent="0" />
        <mxCell id="Ugpq3g7S5GpDSBXR10l6-10" style="edgeStyle=orthogonalEdgeStyle;rounded=0;orthogonalLoop=1;jettySize=auto;html=1;exitX=1;exitY=0.25;exitDx=0;exitDy=0;strokeColor=#000000;fillColor=#647687;" parent="1" target="7l68HAIhDoD8jShRCUK5-87" edge="1">
          <mxGeometry relative="1" as="geometry">
            <mxPoint x="510" y="284.5" as="sourcePoint" />
            <Array as="points">
              <mxPoint x="530" y="284.5" />
              <mxPoint x="530" y="274.5" />
            </Array>
          </mxGeometry>
        </mxCell>
        <mxCell id="Ugpq3g7S5GpDSBXR10l6-1" value="Instruction&lt;br&gt;Memory" style="rounded=0;whiteSpace=wrap;html=1;strokeColor=#000000;fillColor=#647687;fontColor=#ffffff;" parent="1" vertex="1">
          <mxGeometry x="245" y="240" width="80" height="160" as="geometry" />
        </mxCell>
        <mxCell id="nZXYA9FFozqnE7sLYy3P-3" style="edgeStyle=orthogonalEdgeStyle;rounded=0;orthogonalLoop=1;jettySize=auto;html=1;" parent="1" source="Ugpq3g7S5GpDSBXR10l6-2" target="Ugpq3g7S5GpDSBXR10l6-42" edge="1">
          <mxGeometry relative="1" as="geometry">
            <mxPoint x="2050" y="300" as="targetPoint" />
            <Array as="points">
              <mxPoint x="2040" y="316" />
              <mxPoint x="2040" y="302" />
            </Array>
          </mxGeometry>
        </mxCell>
        <mxCell id="Ugpq3g7S5GpDSBXR10l6-2" value="Data&lt;br&gt;Memory" style="rounded=0;whiteSpace=wrap;html=1;strokeColor=#000000;fillColor=#647687;fontColor=#ffffff;" parent="1" vertex="1">
          <mxGeometry x="1770" y="236.25" width="80" height="160" as="geometry" />
        </mxCell>
        <mxCell id="Ugpq3g7S5GpDSBXR10l6-19" style="edgeStyle=orthogonalEdgeStyle;rounded=0;orthogonalLoop=1;jettySize=auto;html=1;exitX=0.5;exitY=0;exitDx=0;exitDy=0;strokeColor=#000000;fillColor=#647687;entryX=0.225;entryY=0.98;entryDx=0;entryDy=0;entryPerimeter=0;" parent="1" target="P1shMp356iEXxUVnIpec-98" edge="1">
          <mxGeometry relative="1" as="geometry">
            <mxPoint x="1126.875" y="261.0750000000001" as="targetPoint" />
            <mxPoint x="770" y="278.57" as="sourcePoint" />
            <Array as="points">
              <mxPoint x="990" y="279" />
              <mxPoint x="990" y="260" />
            </Array>
          </mxGeometry>
        </mxCell>
        <mxCell id="Ugpq3g7S5GpDSBXR10l6-20" style="edgeStyle=orthogonalEdgeStyle;rounded=0;orthogonalLoop=1;jettySize=auto;html=1;strokeColor=#000000;fillColor=#647687;exitX=0.5;exitY=0;exitDx=0;exitDy=0;entryX=0.25;entryY=1;entryDx=0;entryDy=0;" parent="1" source="P1shMp356iEXxUVnIpec-66" target="P1shMp356iEXxUVnIpec-99" edge="1">
          <mxGeometry relative="1" as="geometry">
            <mxPoint x="1190" y="340" as="targetPoint" />
            <Array as="points">
              <mxPoint x="1160" y="320" />
              <mxPoint x="1194" y="321" />
            </Array>
            <mxPoint x="770" y="320" as="sourcePoint" />
          </mxGeometry>
        </mxCell>
        <mxCell id="Ugpq3g7S5GpDSBXR10l6-3" value="Register&lt;br&gt;File" style="rounded=0;whiteSpace=wrap;html=1;strokeColor=#000000;fillColor=#647687;fontColor=#ffffff;" parent="1" vertex="1">
          <mxGeometry x="590" y="244.5" width="120" height="160" as="geometry" />
        </mxCell>
        <mxCell id="7l68HAIhDoD8jShRCUK5-13" style="edgeStyle=orthogonalEdgeStyle;rounded=0;orthogonalLoop=1;jettySize=auto;html=1;strokeColor=#3333FF;exitX=1;exitY=0.5;exitDx=0;exitDy=0;entryX=0.043;entryY=0.806;entryDx=0;entryDy=0;entryPerimeter=0;" parent="1" source="P1shMp356iEXxUVnIpec-57" target="7l68HAIhDoD8jShRCUK5-4" edge="1">
          <mxGeometry relative="1" as="geometry">
            <mxPoint x="-320" y="260" as="targetPoint" />
            <mxPoint x="1579.2000000000003" y="134.43999999999983" as="sourcePoint" />
            <Array as="points">
              <mxPoint x="850" y="168" />
              <mxPoint x="850" y="-70" />
              <mxPoint x="-320" y="-70" />
            </Array>
          </mxGeometry>
        </mxCell>
        <mxCell id="Ugpq3g7S5GpDSBXR10l6-4" value="Control&lt;br&gt;Unit" style="rounded=1;whiteSpace=wrap;html=1;strokeColor=#000000;fillColor=#647687;fontColor=#ffffff;" parent="1" vertex="1">
          <mxGeometry x="535" y="19.51" width="120" height="180.49" as="geometry" />
        </mxCell>
        <mxCell id="Ugpq3g7S5GpDSBXR10l6-9" style="edgeStyle=orthogonalEdgeStyle;rounded=0;orthogonalLoop=1;jettySize=auto;html=1;entryX=0;entryY=0.25;entryDx=0;entryDy=0;strokeColor=#000000;fillColor=#647687;" parent="1" target="Ugpq3g7S5GpDSBXR10l6-1" edge="1">
          <mxGeometry relative="1" as="geometry">
            <mxPoint x="220" y="330" as="sourcePoint" />
            <Array as="points">
              <mxPoint x="220" y="280" />
            </Array>
          </mxGeometry>
        </mxCell>
        <mxCell id="Ugpq3g7S5GpDSBXR10l6-17" value="" style="endArrow=none;html=1;rounded=0;strokeColor=#314354;fillColor=#647687;" parent="1" edge="1">
          <mxGeometry width="50" height="50" relative="1" as="geometry">
            <mxPoint x="1480" y="264.5" as="sourcePoint" />
            <mxPoint x="1480" y="264.5" as="targetPoint" />
            <Array as="points">
              <mxPoint x="1480" y="304.5" />
              <mxPoint x="1500" y="324.5" />
              <mxPoint x="1480" y="344.5" />
              <mxPoint x="1480" y="384.5" />
              <mxPoint x="1540" y="364.5" />
              <mxPoint x="1540" y="284.5" />
            </Array>
          </mxGeometry>
        </mxCell>
        <mxCell id="Ugpq3g7S5GpDSBXR10l6-18" value="ALU" style="text;html=1;align=center;verticalAlign=middle;resizable=0;points=[];autosize=1;strokeColor=#000000;fillColor=#647687;fontColor=#ffffff;" parent="1" vertex="1">
          <mxGeometry x="1490" y="309.5" width="50" height="30" as="geometry" />
        </mxCell>
        <mxCell id="Ugpq3g7S5GpDSBXR10l6-22" style="edgeStyle=orthogonalEdgeStyle;rounded=0;orthogonalLoop=1;jettySize=auto;html=1;exitX=0.5;exitY=0;exitDx=0;exitDy=0;strokeColor=#000000;fillColor=#647687;" parent="1" source="Ugpq3g7S5GpDSBXR10l6-21" edge="1">
          <mxGeometry relative="1" as="geometry">
            <mxPoint x="1480" y="356" as="targetPoint" />
          </mxGeometry>
        </mxCell>
        <mxCell id="Ugpq3g7S5GpDSBXR10l6-24" style="edgeStyle=orthogonalEdgeStyle;rounded=0;orthogonalLoop=1;jettySize=auto;html=1;exitX=0.989;exitY=0.506;exitDx=0;exitDy=0;exitPerimeter=0;strokeColor=#000000;fillColor=#647687;entryX=-0.035;entryY=0.483;entryDx=0;entryDy=0;entryPerimeter=0;" parent="1" source="Ugpq3g7S5GpDSBXR10l6-18" target="P1shMp356iEXxUVnIpec-134" edge="1">
          <mxGeometry relative="1" as="geometry">
            <mxPoint x="947" y="324.5" as="sourcePoint" />
            <Array as="points">
              <mxPoint x="1690" y="325" />
              <mxPoint x="1690" y="282" />
            </Array>
          </mxGeometry>
        </mxCell>
        <mxCell id="Ugpq3g7S5GpDSBXR10l6-21" value="" style="shape=trapezoid;perimeter=trapezoidPerimeter;whiteSpace=wrap;html=1;fixedSize=1;rotation=90;strokeColor=#000000;fillColor=#647687;fontColor=#ffffff;" parent="1" vertex="1">
          <mxGeometry x="1380" y="348.44" width="55" height="15" as="geometry" />
        </mxCell>
        <mxCell id="Ugpq3g7S5GpDSBXR10l6-27" style="edgeStyle=orthogonalEdgeStyle;rounded=0;orthogonalLoop=1;jettySize=auto;html=1;entryX=0;entryY=0.75;entryDx=0;entryDy=0;strokeColor=#FF0080;fillColor=#f8cecc;exitX=0.5;exitY=0;exitDx=0;exitDy=0;" parent="1" source="Ugpq3g7S5GpDSBXR10l6-25" edge="1">
          <mxGeometry relative="1" as="geometry">
            <Array as="points">
              <mxPoint x="2260" y="301" />
              <mxPoint x="2260" y="530" />
              <mxPoint x="510" y="530" />
              <mxPoint x="510" y="364" />
            </Array>
            <mxPoint x="1550" y="360" as="sourcePoint" />
            <mxPoint x="587" y="364.5" as="targetPoint" />
          </mxGeometry>
        </mxCell>
        <mxCell id="Ugpq3g7S5GpDSBXR10l6-25" value="" style="shape=trapezoid;perimeter=trapezoidPerimeter;whiteSpace=wrap;html=1;fixedSize=1;rotation=90;strokeColor=#000000;fillColor=#647687;fontColor=#ffffff;" parent="1" vertex="1">
          <mxGeometry x="2150" y="274.5" width="111" height="52.5" as="geometry" />
        </mxCell>
        <mxCell id="Ugpq3g7S5GpDSBXR10l6-28" style="edgeStyle=orthogonalEdgeStyle;rounded=0;orthogonalLoop=1;jettySize=auto;html=1;strokeColor=#000000;fillColor=#647687;entryX=0.106;entryY=1.054;entryDx=0;entryDy=0;entryPerimeter=0;" parent="1" edge="1">
          <mxGeometry relative="1" as="geometry">
            <mxPoint x="1750" y="282" as="sourcePoint" />
            <mxPoint x="2176.4149999999995" y="259.0160000000003" as="targetPoint" />
            <Array as="points">
              <mxPoint x="1750" y="207" />
              <mxPoint x="2050" y="207" />
              <mxPoint x="2050" y="259" />
            </Array>
          </mxGeometry>
        </mxCell>
        <mxCell id="Ugpq3g7S5GpDSBXR10l6-30" value="" style="html=1;verticalLabelPosition=bottom;align=center;labelBackgroundColor=#ffffff;verticalAlign=top;strokeWidth=2;strokeColor=#000000;shadow=0;dashed=0;shape=mxgraph.ios7.icons.add;fillColor=#647687;fontColor=#ffffff;" parent="1" vertex="1">
          <mxGeometry x="260" y="460.5" width="30" height="30" as="geometry" />
        </mxCell>
        <mxCell id="Ugpq3g7S5GpDSBXR10l6-31" style="edgeStyle=orthogonalEdgeStyle;rounded=0;orthogonalLoop=1;jettySize=auto;html=1;strokeColor=#000000;fillColor=#647687;exitX=0.954;exitY=0.479;exitDx=0;exitDy=0;exitPerimeter=0;" parent="1" source="nZXYA9FFozqnE7sLYy3P-6" edge="1">
          <mxGeometry relative="1" as="geometry">
            <mxPoint x="200" y="320" as="sourcePoint" />
            <mxPoint x="275" y="459" as="targetPoint" />
            <Array as="points">
              <mxPoint x="189" y="330" />
              <mxPoint x="220" y="330" />
              <mxPoint x="220" y="440" />
              <mxPoint x="275" y="440" />
            </Array>
          </mxGeometry>
        </mxCell>
        <mxCell id="7l68HAIhDoD8jShRCUK5-1" value="" style="edgeStyle=orthogonalEdgeStyle;rounded=0;orthogonalLoop=1;jettySize=auto;html=1;strokeColor=#000000;" parent="1" source="Ugpq3g7S5GpDSBXR10l6-33" target="Ugpq3g7S5GpDSBXR10l6-30" edge="1">
          <mxGeometry relative="1" as="geometry" />
        </mxCell>
        <mxCell id="Ugpq3g7S5GpDSBXR10l6-33" value="&lt;span style=&quot;background-color: rgb(255, 255, 255);&quot;&gt;&lt;font color=&quot;#000000&quot;&gt;4&lt;/font&gt;&lt;/span&gt;" style="text;html=1;align=center;verticalAlign=middle;whiteSpace=wrap;rounded=0;strokeColor=#000000;fillColor=none;fontColor=#ffffff;" parent="1" vertex="1">
          <mxGeometry x="210" y="460.5" width="30" height="30" as="geometry" />
        </mxCell>
        <mxCell id="7l68HAIhDoD8jShRCUK5-6" style="edgeStyle=orthogonalEdgeStyle;rounded=0;orthogonalLoop=1;jettySize=auto;html=1;strokeColor=#000000;entryX=0.784;entryY=0.965;entryDx=0;entryDy=0;entryPerimeter=0;" parent="1" source="Ugpq3g7S5GpDSBXR10l6-35" target="7l68HAIhDoD8jShRCUK5-4" edge="1">
          <mxGeometry relative="1" as="geometry">
            <mxPoint x="80" y="360" as="targetPoint" />
            <Array as="points">
              <mxPoint x="700" y="710" />
              <mxPoint x="700" y="760" />
              <mxPoint x="-390" y="760" />
              <mxPoint x="-390" y="359" />
            </Array>
          </mxGeometry>
        </mxCell>
        <mxCell id="Ugpq3g7S5GpDSBXR10l6-35" value="&amp;lt;&amp;lt;2" style="shape=parallelogram;perimeter=parallelogramPerimeter;whiteSpace=wrap;html=1;fixedSize=1;size=20;rotation=0;strokeColor=#000000;fillColor=#647687;fontColor=#ffffff;" parent="1" vertex="1">
          <mxGeometry x="590" y="684.5" width="80" height="50" as="geometry" />
        </mxCell>
        <mxCell id="Ugpq3g7S5GpDSBXR10l6-36" style="edgeStyle=orthogonalEdgeStyle;rounded=0;orthogonalLoop=1;jettySize=auto;html=1;entryX=0;entryY=0.5;entryDx=0;entryDy=0;strokeColor=#000000;fillColor=#647687;" parent="1" target="Ugpq3g7S5GpDSBXR10l6-35" edge="1">
          <mxGeometry relative="1" as="geometry">
            <mxPoint x="420" y="284" as="sourcePoint" />
            <mxPoint x="600" y="294.5" as="targetPoint" />
            <Array as="points">
              <mxPoint x="530" y="284.5" />
              <mxPoint x="530" y="709.5" />
            </Array>
          </mxGeometry>
        </mxCell>
        <mxCell id="nZXYA9FFozqnE7sLYy3P-2" style="edgeStyle=orthogonalEdgeStyle;rounded=0;orthogonalLoop=1;jettySize=auto;html=1;" parent="1" source="Ugpq3g7S5GpDSBXR10l6-42" target="7l68HAIhDoD8jShRCUK5-111" edge="1">
          <mxGeometry relative="1" as="geometry" />
        </mxCell>
        <mxCell id="Ugpq3g7S5GpDSBXR10l6-42" value="Byte_Control" style="rounded=1;whiteSpace=wrap;html=1;strokeColor=#000000;fillColor=#647687;fontColor=#ffffff;" parent="1" vertex="1">
          <mxGeometry x="2060" y="271.5" width="80" height="60" as="geometry" />
        </mxCell>
        <mxCell id="Ugpq3g7S5GpDSBXR10l6-65" style="edgeStyle=orthogonalEdgeStyle;rounded=0;orthogonalLoop=1;jettySize=auto;html=1;strokeColor=#000000;fillColor=#647687;" parent="1" source="Ugpq3g7S5GpDSBXR10l6-58" edge="1">
          <mxGeometry relative="1" as="geometry">
            <Array as="points">
              <mxPoint x="730" y="610" />
              <mxPoint x="730" y="660" />
              <mxPoint x="-410" y="660" />
              <mxPoint x="-410" y="320" />
            </Array>
            <mxPoint x="-330" y="320" as="targetPoint" />
          </mxGeometry>
        </mxCell>
        <mxCell id="Ugpq3g7S5GpDSBXR10l6-58" value="" style="html=1;verticalLabelPosition=bottom;align=center;labelBackgroundColor=#ffffff;verticalAlign=top;strokeWidth=2;strokeColor=#000000;shadow=0;dashed=0;shape=mxgraph.ios7.icons.add;fillColor=#647687;fontColor=#ffffff;" parent="1" vertex="1">
          <mxGeometry x="675" y="594.5" width="30" height="30" as="geometry" />
        </mxCell>
        <mxCell id="Ugpq3g7S5GpDSBXR10l6-59" value="&amp;lt;&amp;lt;2" style="shape=parallelogram;perimeter=parallelogramPerimeter;whiteSpace=wrap;html=1;fixedSize=1;size=20;rotation=0;strokeColor=#000000;fillColor=#647687;fontColor=#ffffff;" parent="1" vertex="1">
          <mxGeometry x="555" y="594.5" width="80" height="50" as="geometry" />
        </mxCell>
        <mxCell id="Ugpq3g7S5GpDSBXR10l6-62" style="edgeStyle=orthogonalEdgeStyle;rounded=0;orthogonalLoop=1;jettySize=auto;html=1;exitX=1;exitY=0.5;exitDx=0;exitDy=0;exitPerimeter=0;entryX=0;entryY=0.5;entryDx=0;entryDy=0;strokeColor=#000000;fillColor=#647687;" parent="1" source="Ugpq3g7S5GpDSBXR10l6-61" target="Ugpq3g7S5GpDSBXR10l6-59" edge="1">
          <mxGeometry relative="1" as="geometry">
            <Array as="points">
              <mxPoint x="740" y="485" />
              <mxPoint x="740" y="570" />
              <mxPoint x="550" y="570" />
              <mxPoint x="550" y="619" />
            </Array>
          </mxGeometry>
        </mxCell>
        <mxCell id="Ugpq3g7S5GpDSBXR10l6-61" value="Sign Extend" style="shape=card;whiteSpace=wrap;html=1;strokeColor=#000000;fillColor=#647687;fontColor=#ffffff;" parent="1" vertex="1">
          <mxGeometry x="610" y="460.5" width="100" height="50" as="geometry" />
        </mxCell>
        <mxCell id="Ugpq3g7S5GpDSBXR10l6-63" style="edgeStyle=orthogonalEdgeStyle;rounded=0;orthogonalLoop=1;jettySize=auto;html=1;exitX=1;exitY=0.25;exitDx=0;exitDy=0;entryX=0;entryY=0;entryDx=0;entryDy=40;entryPerimeter=0;strokeColor=#000000;fillColor=#647687;" parent="1" source="Ugpq3g7S5GpDSBXR10l6-1" target="Ugpq3g7S5GpDSBXR10l6-61" edge="1">
          <mxGeometry relative="1" as="geometry">
            <mxPoint x="510" y="284.5" as="sourcePoint" />
            <mxPoint x="610" y="579.5" as="targetPoint" />
            <Array as="points">
              <mxPoint x="400" y="284" />
              <mxPoint x="420" y="284" />
              <mxPoint x="420" y="500" />
            </Array>
          </mxGeometry>
        </mxCell>
        <mxCell id="Ugpq3g7S5GpDSBXR10l6-64" style="edgeStyle=orthogonalEdgeStyle;rounded=0;orthogonalLoop=1;jettySize=auto;html=1;strokeColor=#000000;fillColor=#647687;exitX=1;exitY=0.5;exitDx=0;exitDy=0;entryX=-0.08;entryY=0.46;entryDx=0;entryDy=0;entryPerimeter=0;" parent="1" source="Ugpq3g7S5GpDSBXR10l6-59" target="Ugpq3g7S5GpDSBXR10l6-58" edge="1">
          <mxGeometry relative="1" as="geometry">
            <Array as="points">
              <mxPoint x="625" y="615" />
              <mxPoint x="650" y="615" />
              <mxPoint x="650" y="608" />
            </Array>
            <mxPoint x="650" y="605" as="targetPoint" />
            <mxPoint x="1060" y="610" as="sourcePoint" />
          </mxGeometry>
        </mxCell>
        <mxCell id="Ugpq3g7S5GpDSBXR10l6-66" value="&lt;span style=&quot;background-color: rgb(255, 255, 255);&quot;&gt;&lt;font color=&quot;#000000&quot;&gt;25:0&lt;/font&gt;&lt;/span&gt;" style="text;html=1;align=center;verticalAlign=middle;resizable=0;points=[];autosize=1;strokeColor=#000000;fillColor=none;fontColor=#ffffff;" parent="1" vertex="1">
          <mxGeometry x="535" y="680" width="50" height="30" as="geometry" />
        </mxCell>
        <mxCell id="Ugpq3g7S5GpDSBXR10l6-67" value="&lt;font style=&quot;background-color: rgb(255, 255, 255);&quot; color=&quot;#000000&quot;&gt;15:0&lt;/font&gt;" style="text;html=1;align=center;verticalAlign=middle;resizable=0;points=[];autosize=1;strokeColor=#000000;fillColor=none;fontColor=#ffffff;" parent="1" vertex="1">
          <mxGeometry x="540" y="470.5" width="50" height="30" as="geometry" />
        </mxCell>
        <mxCell id="Ugpq3g7S5GpDSBXR10l6-68" style="edgeStyle=orthogonalEdgeStyle;rounded=0;orthogonalLoop=1;jettySize=auto;html=1;strokeColor=#000000;fillColor=#647687;entryX=0.491;entryY=-0.01;entryDx=0;entryDy=0;entryPerimeter=0;exitX=0.503;exitY=1.032;exitDx=0;exitDy=0;exitPerimeter=0;" parent="1" source="Ugpq3g7S5GpDSBXR10l6-30" target="Ugpq3g7S5GpDSBXR10l6-58" edge="1">
          <mxGeometry relative="1" as="geometry">
            <mxPoint x="300" y="510" as="sourcePoint" />
            <mxPoint x="910" y="580" as="targetPoint" />
            <Array as="points">
              <mxPoint x="275" y="580" />
              <mxPoint x="690" y="580" />
            </Array>
          </mxGeometry>
        </mxCell>
        <mxCell id="Ugpq3g7S5GpDSBXR10l6-70" style="edgeStyle=orthogonalEdgeStyle;rounded=0;orthogonalLoop=1;jettySize=auto;html=1;entryX=0.629;entryY=0.903;entryDx=0;entryDy=0;entryPerimeter=0;strokeColor=#000000;fillColor=#647687;" parent="1" edge="1">
          <mxGeometry relative="1" as="geometry">
            <mxPoint x="740" y="485" as="sourcePoint" />
            <mxPoint x="1398.455" y="353.03499999999985" as="targetPoint" />
            <Array as="points">
              <mxPoint x="760" y="485" />
              <mxPoint x="760" y="375" />
              <mxPoint x="1370" y="375" />
              <mxPoint x="1370" y="353" />
            </Array>
          </mxGeometry>
        </mxCell>
        <mxCell id="7l68HAIhDoD8jShRCUK5-4" value="" style="shape=trapezoid;perimeter=trapezoidPerimeter;whiteSpace=wrap;html=1;fixedSize=1;rotation=90;strokeColor=#000000;fillColor=#647687;fontColor=#ffffff;" parent="1" vertex="1">
          <mxGeometry x="-364.68" y="305.57" width="115" height="41.87" as="geometry" />
        </mxCell>
        <mxCell id="7l68HAIhDoD8jShRCUK5-8" value="&lt;span style=&quot;background-color: rgb(255, 255, 255);&quot;&gt;&lt;font color=&quot;#000000&quot;&gt;{PC[31:28],}&lt;/font&gt;&lt;/span&gt;" style="text;html=1;align=center;verticalAlign=middle;resizable=0;points=[];autosize=1;strokeColor=#000000;fillColor=none;fontColor=#ffffff;" parent="1" vertex="1">
          <mxGeometry x="-390" y="730" width="90" height="30" as="geometry" />
        </mxCell>
        <mxCell id="7l68HAIhDoD8jShRCUK5-9" style="edgeStyle=orthogonalEdgeStyle;rounded=0;orthogonalLoop=1;jettySize=auto;html=1;strokeColor=#000000;fillColor=#647687;" parent="1" edge="1">
          <mxGeometry relative="1" as="geometry">
            <Array as="points">
              <mxPoint x="-430" y="580" />
              <mxPoint x="-430" y="290" />
            </Array>
            <mxPoint x="340" y="580" as="sourcePoint" />
            <mxPoint x="-330" y="290" as="targetPoint" />
          </mxGeometry>
        </mxCell>
        <mxCell id="7l68HAIhDoD8jShRCUK5-14" style="edgeStyle=orthogonalEdgeStyle;rounded=0;orthogonalLoop=1;jettySize=auto;html=1;strokeColor=#3333FF;exitX=0.001;exitY=0.721;exitDx=0;exitDy=0;exitPerimeter=0;" parent="1" source="Ugpq3g7S5GpDSBXR10l6-4" edge="1">
          <mxGeometry relative="1" as="geometry">
            <mxPoint x="2220" y="-30" as="targetPoint" />
            <mxPoint x="420" y="150" as="sourcePoint" />
            <Array as="points">
              <mxPoint x="450" y="150" />
              <mxPoint x="450" y="-30" />
              <mxPoint x="2215" y="-30" />
            </Array>
          </mxGeometry>
        </mxCell>
        <mxCell id="7l68HAIhDoD8jShRCUK5-15" style="edgeStyle=orthogonalEdgeStyle;rounded=0;orthogonalLoop=1;jettySize=auto;html=1;strokeColor=#3333FF;exitX=0.008;exitY=0.778;exitDx=0;exitDy=0;exitPerimeter=0;" parent="1" edge="1">
          <mxGeometry relative="1" as="geometry">
            <mxPoint x="2220" y="-50" as="targetPoint" />
            <mxPoint x="534.96" y="159.93121999999994" as="sourcePoint" />
            <Array as="points">
              <mxPoint x="439" y="160" />
              <mxPoint x="439" y="-50" />
              <mxPoint x="2213" y="-50" />
            </Array>
          </mxGeometry>
        </mxCell>
        <mxCell id="7l68HAIhDoD8jShRCUK5-28" value="R[rs]" style="text;html=1;align=center;verticalAlign=middle;whiteSpace=wrap;rounded=0;strokeColor=none;fillColor=none;fontColor=#ffffff;" parent="1" vertex="1">
          <mxGeometry x="670" y="274.5" width="40" height="20" as="geometry" />
        </mxCell>
        <mxCell id="7l68HAIhDoD8jShRCUK5-29" value="R[rt]" style="text;html=1;align=center;verticalAlign=middle;whiteSpace=wrap;rounded=0;strokeColor=none;fillColor=none;fontColor=#ffffff;" parent="1" vertex="1">
          <mxGeometry x="670" y="309.5" width="40" height="20" as="geometry" />
        </mxCell>
        <mxCell id="7l68HAIhDoD8jShRCUK5-30" value="R[rd]" style="text;html=1;align=center;verticalAlign=middle;whiteSpace=wrap;rounded=0;strokeColor=none;fillColor=none;fontColor=#ffffff;" parent="1" vertex="1">
          <mxGeometry x="590" y="352.5" width="40" height="20" as="geometry" />
        </mxCell>
        <mxCell id="7l68HAIhDoD8jShRCUK5-31" style="edgeStyle=orthogonalEdgeStyle;rounded=0;orthogonalLoop=1;jettySize=auto;html=1;strokeColor=#000000;fillColor=#647687;entryX=0.25;entryY=1;entryDx=0;entryDy=0;" parent="1" target="pxD3CVF10N9NgYZiStoD-1" edge="1">
          <mxGeometry relative="1" as="geometry">
            <mxPoint x="-60" y="380" as="targetPoint" />
            <mxPoint x="730" y="280" as="sourcePoint" />
            <Array as="points">
              <mxPoint x="730" y="230" />
              <mxPoint x="-500" y="230" />
              <mxPoint x="-500" y="360" />
            </Array>
          </mxGeometry>
        </mxCell>
        <mxCell id="7l68HAIhDoD8jShRCUK5-42" value="Alu_control" style="ellipse;whiteSpace=wrap;html=1;aspect=fixed;fillColor=#647687;fontColor=#ffffff;strokeColor=#314354;" parent="1" vertex="1">
          <mxGeometry x="1460" y="109.5" width="80" height="80" as="geometry" />
        </mxCell>
        <mxCell id="7l68HAIhDoD8jShRCUK5-43" value="&lt;font color=&quot;#3333ff&quot;&gt;Jr_D&lt;/font&gt;" style="text;html=1;align=center;verticalAlign=middle;resizable=0;points=[];autosize=1;strokeColor=none;fillColor=none;" parent="1" vertex="1">
          <mxGeometry x="490" y="139.48" width="50" height="30" as="geometry" />
        </mxCell>
        <mxCell id="7l68HAIhDoD8jShRCUK5-44" value="&lt;font color=&quot;#3333ff&quot;&gt;J_D&lt;/font&gt;" style="text;html=1;align=center;verticalAlign=middle;resizable=0;points=[];autosize=1;strokeColor=none;fillColor=none;" parent="1" vertex="1">
          <mxGeometry x="497" y="125.5" width="40" height="30" as="geometry" />
        </mxCell>
        <mxCell id="7l68HAIhDoD8jShRCUK5-45" value="&lt;font style=&quot;font-size: 10px;&quot; color=&quot;#3333ff&quot;&gt;Branch&lt;br&gt;_control_D&lt;/font&gt;" style="text;html=1;align=center;verticalAlign=middle;resizable=0;points=[];autosize=1;strokeColor=none;fillColor=none;" parent="1" vertex="1">
          <mxGeometry x="831.0000000000001" y="137.5" width="70" height="40" as="geometry" />
        </mxCell>
        <mxCell id="7l68HAIhDoD8jShRCUK5-51" style="edgeStyle=orthogonalEdgeStyle;rounded=0;orthogonalLoop=1;jettySize=auto;html=1;entryX=0.009;entryY=0.842;entryDx=0;entryDy=0;strokeColor=#000000;fillColor=#647687;entryPerimeter=0;" parent="1" target="Ugpq3g7S5GpDSBXR10l6-4" edge="1">
          <mxGeometry relative="1" as="geometry">
            <mxPoint x="520" y="284.5" as="sourcePoint" />
            <mxPoint x="590" y="243.5" as="targetPoint" />
            <Array as="points">
              <mxPoint x="520" y="265.5" />
              <mxPoint x="520" y="174.5" />
              <mxPoint x="534" y="174.5" />
              <mxPoint x="534" y="176.5" />
            </Array>
          </mxGeometry>
        </mxCell>
        <mxCell id="7l68HAIhDoD8jShRCUK5-55" style="edgeStyle=orthogonalEdgeStyle;rounded=0;orthogonalLoop=1;jettySize=auto;html=1;strokeColor=#000000;fillColor=#647687;exitX=0.981;exitY=0.853;exitDx=0;exitDy=0;exitPerimeter=0;" parent="1" edge="1">
          <mxGeometry relative="1" as="geometry">
            <mxPoint x="524.0500000000002" y="285.09000000000015" as="sourcePoint" />
            <mxPoint x="540" y="189.5" as="targetPoint" />
            <Array as="points">
              <mxPoint x="524" y="190" />
            </Array>
          </mxGeometry>
        </mxCell>
        <mxCell id="7l68HAIhDoD8jShRCUK5-56" value="&lt;font style=&quot;background-color: rgb(255, 255, 255); font-size: 10px;&quot; color=&quot;#000000&quot;&gt;opcode_D&lt;/font&gt;" style="text;html=1;align=center;verticalAlign=middle;resizable=0;points=[];autosize=1;strokeColor=none;fillColor=none;" parent="1" vertex="1">
          <mxGeometry x="450" y="159.5" width="70" height="30" as="geometry" />
        </mxCell>
        <mxCell id="7l68HAIhDoD8jShRCUK5-57" value="&lt;font size=&quot;1&quot; color=&quot;#000000&quot;&gt;&lt;span style=&quot;background-color: rgb(255, 255, 255);&quot;&gt;funct_D&lt;/span&gt;&lt;/font&gt;" style="text;html=1;align=center;verticalAlign=middle;resizable=0;points=[];autosize=1;strokeColor=none;fillColor=none;" parent="1" vertex="1">
          <mxGeometry x="455" y="180" width="60" height="30" as="geometry" />
        </mxCell>
        <mxCell id="7l68HAIhDoD8jShRCUK5-58" style="edgeStyle=orthogonalEdgeStyle;rounded=0;orthogonalLoop=1;jettySize=auto;html=1;strokeColor=#3333FF;exitX=0.087;exitY=-0.005;exitDx=0;exitDy=0;exitPerimeter=0;entryX=0;entryY=0.5;entryDx=0;entryDy=0;" parent="1" source="7l68HAIhDoD8jShRCUK5-68" target="Ugpq3g7S5GpDSBXR10l6-25" edge="1">
          <mxGeometry relative="1" as="geometry">
            <mxPoint x="1290" y="194.5" as="targetPoint" />
            <mxPoint x="656.52" y="53.47678000000002" as="sourcePoint" />
            <Array as="points">
              <mxPoint x="657" y="54" />
              <mxPoint x="1397" y="55" />
            </Array>
          </mxGeometry>
        </mxCell>
        <mxCell id="7l68HAIhDoD8jShRCUK5-59" style="edgeStyle=orthogonalEdgeStyle;rounded=0;orthogonalLoop=1;jettySize=auto;html=1;strokeColor=#3333FF;entryX=0;entryY=0;entryDx=0;entryDy=0;endArrow=classic;endFill=1;exitX=0.085;exitY=0.029;exitDx=0;exitDy=0;exitPerimeter=0;" parent="1" edge="1">
          <mxGeometry relative="1" as="geometry">
            <mxPoint x="783.7867965644036" y="146.2867965644034" as="targetPoint" />
            <mxPoint x="645.9500000000003" y="75.37000000000012" as="sourcePoint" />
            <Array as="points">
              <mxPoint x="735" y="75" />
              <mxPoint x="735" y="146" />
            </Array>
          </mxGeometry>
        </mxCell>
        <mxCell id="7l68HAIhDoD8jShRCUK5-65" style="edgeStyle=orthogonalEdgeStyle;rounded=0;orthogonalLoop=1;jettySize=auto;html=1;strokeColor=#3333FF;exitX=0.119;exitY=0.035;exitDx=0;exitDy=0;exitPerimeter=0;entryX=0.593;entryY=-0.002;entryDx=0;entryDy=0;entryPerimeter=0;" parent="1" source="7l68HAIhDoD8jShRCUK5-74" target="Ugpq3g7S5GpDSBXR10l6-2" edge="1">
          <mxGeometry relative="1" as="geometry">
            <mxPoint x="1077" y="240" as="targetPoint" />
            <mxPoint x="660" y="60.5" as="sourcePoint" />
            <Array as="points">
              <mxPoint x="1817" y="66" />
              <mxPoint x="1817" y="236" />
            </Array>
          </mxGeometry>
        </mxCell>
        <mxCell id="7l68HAIhDoD8jShRCUK5-66" value="&lt;font style=&quot;font-size: 10px;&quot; color=&quot;#3333ff&quot;&gt;MemtoReg_D&lt;/font&gt;" style="text;html=1;align=center;verticalAlign=middle;resizable=0;points=[];autosize=1;strokeColor=none;fillColor=none;" parent="1" vertex="1">
          <mxGeometry x="645" y="34.5" width="90" height="30" as="geometry" />
        </mxCell>
        <mxCell id="7l68HAIhDoD8jShRCUK5-67" value="&lt;font style=&quot;font-size: 10px;&quot; color=&quot;#3333ff&quot;&gt;MemWrite_D&lt;/font&gt;" style="text;html=1;align=center;verticalAlign=middle;resizable=0;points=[];autosize=1;strokeColor=none;fillColor=none;" parent="1" vertex="1">
          <mxGeometry x="645" y="44.5" width="80" height="30" as="geometry" />
        </mxCell>
        <mxCell id="7l68HAIhDoD8jShRCUK5-68" value="&lt;font color=&quot;#3333ff&quot;&gt;&lt;span style=&quot;font-size: 10px;&quot;&gt;Branch_D&lt;/span&gt;&lt;/font&gt;" style="text;html=1;align=center;verticalAlign=middle;resizable=0;points=[];autosize=1;strokeColor=none;fillColor=none;" parent="1" vertex="1">
          <mxGeometry x="645" y="54.5" width="70" height="30" as="geometry" />
        </mxCell>
        <mxCell id="7l68HAIhDoD8jShRCUK5-69" style="edgeStyle=orthogonalEdgeStyle;rounded=0;orthogonalLoop=1;jettySize=auto;html=1;strokeColor=#3333FF;endArrow=classic;endFill=1;entryX=0.5;entryY=0;entryDx=0;entryDy=0;" parent="1" target="7l68HAIhDoD8jShRCUK5-42" edge="1">
          <mxGeometry relative="1" as="geometry">
            <mxPoint x="880" y="104.5" as="targetPoint" />
            <mxPoint x="655" y="84.5" as="sourcePoint" />
            <Array as="points">
              <mxPoint x="833" y="84" />
              <mxPoint x="1330" y="84" />
            </Array>
          </mxGeometry>
        </mxCell>
        <mxCell id="7l68HAIhDoD8jShRCUK5-71" style="edgeStyle=orthogonalEdgeStyle;rounded=0;orthogonalLoop=1;jettySize=auto;html=1;strokeColor=#000000;fillColor=#647687;exitX=0.999;exitY=1.02;exitDx=0;exitDy=0;exitPerimeter=0;" parent="1" target="7l68HAIhDoD8jShRCUK5-42" edge="1">
          <mxGeometry relative="1" as="geometry">
            <mxPoint x="523.9500000000003" y="215.0999999999999" as="sourcePoint" />
            <mxPoint x="790" y="169" as="targetPoint" />
            <Array as="points">
              <mxPoint x="524" y="210" />
              <mxPoint x="1430" y="210" />
              <mxPoint x="1430" y="150" />
            </Array>
          </mxGeometry>
        </mxCell>
        <mxCell id="7l68HAIhDoD8jShRCUK5-74" value="&lt;font color=&quot;#3333ff&quot;&gt;&lt;span style=&quot;font-size: 10px;&quot;&gt;Alu_opcode_D&lt;/span&gt;&lt;/font&gt;" style="text;html=1;align=center;verticalAlign=middle;resizable=0;points=[];autosize=1;strokeColor=none;fillColor=none;" parent="1" vertex="1">
          <mxGeometry x="645" y="64.5" width="90" height="30" as="geometry" />
        </mxCell>
        <mxCell id="7l68HAIhDoD8jShRCUK5-78" value="&lt;font color=&quot;#3333ff&quot; style=&quot;font-size: 8px;&quot;&gt;2&lt;/font&gt;" style="text;html=1;align=center;verticalAlign=middle;resizable=0;points=[];autosize=1;strokeColor=none;fillColor=none;" parent="1" vertex="1">
          <mxGeometry x="734" y="62.5" width="30" height="30" as="geometry" />
        </mxCell>
        <mxCell id="7l68HAIhDoD8jShRCUK5-79" style="edgeStyle=orthogonalEdgeStyle;rounded=0;orthogonalLoop=1;jettySize=auto;html=1;strokeColor=#3333FF;endArrow=classic;endFill=1;exitX=0.5;exitY=1;exitDx=0;exitDy=0;" parent="1" source="7l68HAIhDoD8jShRCUK5-42" edge="1">
          <mxGeometry relative="1" as="geometry">
            <mxPoint x="1510" y="270" as="targetPoint" />
            <mxPoint x="835" y="214.5" as="sourcePoint" />
            <Array as="points">
              <mxPoint x="1510" y="190" />
            </Array>
          </mxGeometry>
        </mxCell>
        <mxCell id="7l68HAIhDoD8jShRCUK5-81" style="edgeStyle=orthogonalEdgeStyle;rounded=0;orthogonalLoop=1;jettySize=auto;html=1;strokeColor=#3333FF;endArrow=classic;endFill=1;entryX=0.175;entryY=0.24;entryDx=0;entryDy=0;entryPerimeter=0;" parent="1" edge="1">
          <mxGeometry relative="1" as="geometry">
            <mxPoint x="1411.4" y="342.06500000000005" as="targetPoint" />
            <mxPoint x="655" y="104.5" as="sourcePoint" />
            <Array as="points">
              <mxPoint x="655" y="94" />
              <mxPoint x="1411" y="94" />
            </Array>
          </mxGeometry>
        </mxCell>
        <mxCell id="7l68HAIhDoD8jShRCUK5-82" style="edgeStyle=orthogonalEdgeStyle;rounded=0;orthogonalLoop=1;jettySize=auto;html=1;strokeColor=#3333FF;endArrow=classic;endFill=1;entryX=0.175;entryY=0.285;entryDx=0;entryDy=0;entryPerimeter=0;" parent="1" target="7l68HAIhDoD8jShRCUK5-90" edge="1">
          <mxGeometry relative="1" as="geometry">
            <mxPoint x="730" y="154.5" as="targetPoint" />
            <mxPoint x="655" y="104.5" as="sourcePoint" />
            <Array as="points">
              <mxPoint x="1020" y="105" />
              <mxPoint x="1020" y="402" />
            </Array>
          </mxGeometry>
        </mxCell>
        <mxCell id="7l68HAIhDoD8jShRCUK5-83" value="&lt;font color=&quot;#3333ff&quot;&gt;&lt;span style=&quot;font-size: 10px;&quot;&gt;ALUSrc_D&lt;/span&gt;&lt;/font&gt;" style="text;html=1;align=center;verticalAlign=middle;resizable=0;points=[];autosize=1;strokeColor=none;fillColor=none;" parent="1" vertex="1">
          <mxGeometry x="645" y="74.5" width="70" height="30" as="geometry" />
        </mxCell>
        <mxCell id="7l68HAIhDoD8jShRCUK5-84" value="&lt;font color=&quot;#3333ff&quot;&gt;&lt;span style=&quot;font-size: 10px;&quot;&gt;RegDst_D&lt;/span&gt;&lt;/font&gt;" style="text;html=1;align=center;verticalAlign=middle;resizable=0;points=[];autosize=1;strokeColor=none;fillColor=none;" parent="1" vertex="1">
          <mxGeometry x="645" y="84.5" width="70" height="30" as="geometry" />
        </mxCell>
        <mxCell id="7l68HAIhDoD8jShRCUK5-85" value="&lt;font color=&quot;#3333ff&quot;&gt;&lt;span style=&quot;font-size: 10px;&quot;&gt;Regwrite_D&lt;/span&gt;&lt;/font&gt;" style="text;html=1;align=center;verticalAlign=middle;resizable=0;points=[];autosize=1;strokeColor=none;fillColor=none;" parent="1" vertex="1">
          <mxGeometry x="640" y="94.5" width="80" height="30" as="geometry" />
        </mxCell>
        <mxCell id="7l68HAIhDoD8jShRCUK5-86" style="edgeStyle=orthogonalEdgeStyle;rounded=0;orthogonalLoop=1;jettySize=auto;html=1;strokeColor=#3333FF;endArrow=classic;endFill=1;" parent="1" edge="1">
          <mxGeometry relative="1" as="geometry">
            <mxPoint x="700" y="240" as="targetPoint" />
            <mxPoint x="655" y="114.5" as="sourcePoint" />
            <Array as="points">
              <mxPoint x="2130" y="115" />
              <mxPoint x="2130" y="-120" />
              <mxPoint x="760" y="-120" />
              <mxPoint x="760" y="190" />
              <mxPoint x="700" y="190" />
            </Array>
          </mxGeometry>
        </mxCell>
        <mxCell id="7l68HAIhDoD8jShRCUK5-87" value="RS" style="text;html=1;align=center;verticalAlign=middle;whiteSpace=wrap;rounded=0;strokeColor=none;fillColor=none;fontColor=#ffffff;" parent="1" vertex="1">
          <mxGeometry x="585" y="259.5" width="40" height="20" as="geometry" />
        </mxCell>
        <mxCell id="7l68HAIhDoD8jShRCUK5-88" value="RT" style="text;html=1;align=center;verticalAlign=middle;whiteSpace=wrap;rounded=0;strokeColor=none;fillColor=none;fontColor=#ffffff;" parent="1" vertex="1">
          <mxGeometry x="585" y="284.5" width="40" height="20" as="geometry" />
        </mxCell>
        <mxCell id="7l68HAIhDoD8jShRCUK5-89" value="RD" style="text;html=1;align=center;verticalAlign=middle;whiteSpace=wrap;rounded=0;strokeColor=none;fillColor=none;fontColor=#ffffff;" parent="1" vertex="1">
          <mxGeometry x="585" y="332.5" width="40" height="20" as="geometry" />
        </mxCell>
        <mxCell id="7l68HAIhDoD8jShRCUK5-90" value="" style="shape=trapezoid;perimeter=trapezoidPerimeter;whiteSpace=wrap;html=1;fixedSize=1;rotation=90;strokeColor=#000000;fillColor=#647687;fontColor=#ffffff;" parent="1" vertex="1">
          <mxGeometry x="990" y="412" width="55" height="15" as="geometry" />
        </mxCell>
        <mxCell id="7l68HAIhDoD8jShRCUK5-92" style="edgeStyle=orthogonalEdgeStyle;rounded=0;orthogonalLoop=1;jettySize=auto;html=1;exitX=0.5;exitY=0;exitDx=0;exitDy=0;entryX=0.75;entryY=1;entryDx=0;entryDy=0;strokeColor=#000000;fillColor=#647687;" parent="1" source="7l68HAIhDoD8jShRCUK5-90" target="7l68HAIhDoD8jShRCUK5-103" edge="1">
          <mxGeometry relative="1" as="geometry">
            <mxPoint x="756" y="402.8" as="sourcePoint" />
            <mxPoint x="890" y="402.8" as="targetPoint" />
            <Array as="points">
              <mxPoint x="1940" y="420" />
              <mxPoint x="1940" y="455" />
              <mxPoint x="470" y="455" />
              <mxPoint x="470" y="364" />
            </Array>
          </mxGeometry>
        </mxCell>
        <mxCell id="7l68HAIhDoD8jShRCUK5-93" style="edgeStyle=orthogonalEdgeStyle;rounded=0;orthogonalLoop=1;jettySize=auto;html=1;strokeColor=#000000;fillColor=#647687;entryX=0.369;entryY=1.194;entryDx=0;entryDy=0;entryPerimeter=0;" parent="1" target="7l68HAIhDoD8jShRCUK5-90" edge="1">
          <mxGeometry relative="1" as="geometry">
            <mxPoint x="530" y="411.5" as="sourcePoint" />
            <mxPoint x="960" y="412" as="targetPoint" />
            <Array as="points">
              <mxPoint x="751" y="412" />
            </Array>
          </mxGeometry>
        </mxCell>
        <mxCell id="7l68HAIhDoD8jShRCUK5-94" style="edgeStyle=orthogonalEdgeStyle;rounded=0;orthogonalLoop=1;jettySize=auto;html=1;strokeColor=#000000;fillColor=#647687;entryX=0.6;entryY=1.117;entryDx=0;entryDy=0;entryPerimeter=0;" parent="1" target="7l68HAIhDoD8jShRCUK5-90" edge="1">
          <mxGeometry relative="1" as="geometry">
            <mxPoint x="530" y="424.5" as="sourcePoint" />
            <mxPoint x="960" y="425" as="targetPoint" />
            <Array as="points">
              <mxPoint x="751" y="424" />
            </Array>
          </mxGeometry>
        </mxCell>
        <mxCell id="7l68HAIhDoD8jShRCUK5-96" style="edgeStyle=orthogonalEdgeStyle;rounded=0;orthogonalLoop=1;jettySize=auto;html=1;exitX=1;exitY=0.25;exitDx=0;exitDy=0;strokeColor=#000000;fillColor=#647687;" parent="1" target="7l68HAIhDoD8jShRCUK5-88" edge="1">
          <mxGeometry relative="1" as="geometry">
            <mxPoint x="530" y="297.5" as="sourcePoint" />
            <mxPoint x="605" y="287.5" as="targetPoint" />
            <Array as="points">
              <mxPoint x="530" y="294.5" />
            </Array>
          </mxGeometry>
        </mxCell>
        <mxCell id="7l68HAIhDoD8jShRCUK5-97" value="&lt;font style=&quot;font-size: 6px;&quot; color=&quot;#000000&quot;&gt;RT&lt;/font&gt;" style="text;html=1;align=center;verticalAlign=middle;resizable=0;points=[];autosize=1;strokeColor=none;fillColor=none;" parent="1" vertex="1">
          <mxGeometry x="535" y="269.5" width="30" height="30" as="geometry" />
        </mxCell>
        <mxCell id="7l68HAIhDoD8jShRCUK5-98" value="&lt;font style=&quot;font-size: 6px;&quot; color=&quot;#000000&quot;&gt;RT&lt;/font&gt;" style="text;html=1;align=center;verticalAlign=middle;resizable=0;points=[];autosize=1;strokeColor=none;fillColor=none;" parent="1" vertex="1">
          <mxGeometry x="525" y="389.5" width="30" height="30" as="geometry" />
        </mxCell>
        <mxCell id="7l68HAIhDoD8jShRCUK5-99" value="&lt;font style=&quot;font-size: 6px;&quot; color=&quot;#000000&quot;&gt;RD&lt;/font&gt;" style="text;html=1;align=center;verticalAlign=middle;resizable=0;points=[];autosize=1;strokeColor=none;fillColor=none;" parent="1" vertex="1">
          <mxGeometry x="525" y="401.5" width="30" height="30" as="geometry" />
        </mxCell>
        <mxCell id="7l68HAIhDoD8jShRCUK5-100" value="&lt;font style=&quot;font-size: 6px;&quot; color=&quot;#000000&quot;&gt;RS&lt;/font&gt;" style="text;html=1;align=center;verticalAlign=middle;resizable=0;points=[];autosize=1;strokeColor=none;fillColor=none;" parent="1" vertex="1">
          <mxGeometry x="535" y="249.5" width="30" height="30" as="geometry" />
        </mxCell>
        <mxCell id="7l68HAIhDoD8jShRCUK5-101" style="edgeStyle=orthogonalEdgeStyle;rounded=0;orthogonalLoop=1;jettySize=auto;html=1;strokeColor=#3333FF;fillColor=#647687;" parent="1" target="7l68HAIhDoD8jShRCUK5-103" edge="1">
          <mxGeometry relative="1" as="geometry">
            <mxPoint x="498" y="240" as="sourcePoint" />
            <mxPoint x="500" y="300" as="targetPoint" />
            <Array as="points">
              <mxPoint x="498" y="260" />
              <mxPoint x="498" y="260" />
            </Array>
          </mxGeometry>
        </mxCell>
        <mxCell id="7l68HAIhDoD8jShRCUK5-103" value="" style="shape=trapezoid;perimeter=trapezoidPerimeter;whiteSpace=wrap;html=1;fixedSize=1;rotation=90;strokeColor=#000000;fillColor=#647687;fontColor=#ffffff;" parent="1" vertex="1">
          <mxGeometry x="470" y="343" width="55" height="15" as="geometry" />
        </mxCell>
        <mxCell id="7l68HAIhDoD8jShRCUK5-104" value="&lt;font color=&quot;#3333ff&quot;&gt;Link_D&lt;/font&gt;" style="text;html=1;align=center;verticalAlign=middle;resizable=0;points=[];autosize=1;strokeColor=none;fillColor=none;" parent="1" vertex="1">
          <mxGeometry x="479" y="105.5" width="60" height="30" as="geometry" />
        </mxCell>
        <mxCell id="7l68HAIhDoD8jShRCUK5-105" value="" style="edgeStyle=orthogonalEdgeStyle;rounded=0;orthogonalLoop=1;jettySize=auto;html=1;strokeColor=#000000;" parent="1" edge="1">
          <mxGeometry relative="1" as="geometry">
            <mxPoint x="470" y="339" as="sourcePoint" />
            <mxPoint x="490" y="339.3" as="targetPoint" />
          </mxGeometry>
        </mxCell>
        <mxCell id="7l68HAIhDoD8jShRCUK5-108" value="&lt;span style=&quot;background-color: rgb(255, 255, 255);&quot;&gt;&lt;font color=&quot;#000000&quot;&gt;$ra&lt;/font&gt;&lt;/span&gt;" style="text;html=1;align=center;verticalAlign=middle;whiteSpace=wrap;rounded=0;strokeColor=#000000;fillColor=none;fontColor=#ffffff;" parent="1" vertex="1">
          <mxGeometry x="445" y="330.44" width="25" height="18" as="geometry" />
        </mxCell>
        <mxCell id="7l68HAIhDoD8jShRCUK5-110" value="" style="edgeStyle=orthogonalEdgeStyle;rounded=0;orthogonalLoop=1;jettySize=auto;html=1;strokeColor=#000000;entryX=0.068;entryY=0.882;entryDx=0;entryDy=0;entryPerimeter=0;" parent="1" target="7l68HAIhDoD8jShRCUK5-89" edge="1">
          <mxGeometry relative="1" as="geometry">
            <mxPoint x="505" y="350.35" as="sourcePoint" />
            <mxPoint x="525" y="350.65000000000003" as="targetPoint" />
            <Array as="points">
              <mxPoint x="550" y="350" />
            </Array>
          </mxGeometry>
        </mxCell>
        <mxCell id="7l68HAIhDoD8jShRCUK5-111" value="Result" style="text;html=1;align=center;verticalAlign=middle;resizable=0;points=[];autosize=1;strokeColor=none;fillColor=none;" parent="1" vertex="1">
          <mxGeometry x="2170" y="286.5" width="60" height="30" as="geometry" />
        </mxCell>
        <mxCell id="7l68HAIhDoD8jShRCUK5-116" style="edgeStyle=orthogonalEdgeStyle;rounded=0;orthogonalLoop=1;jettySize=auto;html=1;strokeColor=#000000;fillColor=#647687;entryX=0.75;entryY=1;entryDx=0;entryDy=0;" parent="1" target="Ugpq3g7S5GpDSBXR10l6-25" edge="1">
          <mxGeometry relative="1" as="geometry">
            <mxPoint x="2138.25" y="298.4999999999993" as="targetPoint" />
            <mxPoint x="689" y="580" as="sourcePoint" />
            <Array as="points">
              <mxPoint x="2100" y="580" />
              <mxPoint x="2100" y="390" />
              <mxPoint x="2160" y="390" />
              <mxPoint x="2160" y="328" />
            </Array>
          </mxGeometry>
        </mxCell>
        <mxCell id="7l68HAIhDoD8jShRCUK5-117" style="edgeStyle=orthogonalEdgeStyle;rounded=0;orthogonalLoop=1;jettySize=auto;html=1;strokeColor=#3333FF;entryX=0.028;entryY=0.795;entryDx=0;entryDy=0;entryPerimeter=0;exitX=0.92;exitY=0.75;exitDx=0;exitDy=0;exitPerimeter=0;" parent="1" source="7l68HAIhDoD8jShRCUK5-104" target="Ugpq3g7S5GpDSBXR10l6-25" edge="1">
          <mxGeometry relative="1" as="geometry">
            <mxPoint x="2080" y="270" as="targetPoint" />
            <mxPoint x="460" y="130" as="sourcePoint" />
            <Array as="points">
              <mxPoint x="460" y="130" />
              <mxPoint x="460" y="-10" />
              <mxPoint x="2190" y="-10" />
            </Array>
          </mxGeometry>
        </mxCell>
        <mxCell id="nZXYA9FFozqnE7sLYy3P-8" value="" style="edgeStyle=orthogonalEdgeStyle;rounded=0;orthogonalLoop=1;jettySize=auto;html=1;exitX=0.5;exitY=0;exitDx=0;exitDy=0;entryX=0.123;entryY=1.021;entryDx=0;entryDy=0;entryPerimeter=0;" parent="1" source="7l68HAIhDoD8jShRCUK5-4" target="YMpywW8aHW3HMsSgRhSE-2" edge="1">
          <mxGeometry relative="1" as="geometry">
            <Array as="points">
              <mxPoint x="-286" y="330" />
              <mxPoint x="-270" y="330" />
              <mxPoint x="-270" y="274" />
            </Array>
            <mxPoint x="-250" y="333" as="targetPoint" />
          </mxGeometry>
        </mxCell>
        <mxCell id="7l68HAIhDoD8jShRCUK5-119" value="&lt;font color=&quot;#ffffff&quot;&gt;PcSrc&lt;/font&gt;" style="text;html=1;align=center;verticalAlign=middle;resizable=0;points=[];autosize=1;strokeColor=none;fillColor=none;" parent="1" vertex="1">
          <mxGeometry x="-340" y="309.5" width="60" height="30" as="geometry" />
        </mxCell>
        <mxCell id="7l68HAIhDoD8jShRCUK5-120" value="Zero Extend" style="shape=card;whiteSpace=wrap;html=1;strokeColor=#000000;fillColor=#647687;fontColor=#ffffff;" parent="1" vertex="1">
          <mxGeometry x="610" y="514.5" width="100" height="50" as="geometry" />
        </mxCell>
        <mxCell id="7l68HAIhDoD8jShRCUK5-121" style="edgeStyle=orthogonalEdgeStyle;rounded=0;orthogonalLoop=1;jettySize=auto;html=1;entryX=0;entryY=0;entryDx=0;entryDy=40;entryPerimeter=0;strokeColor=#000000;fillColor=#647687;" parent="1" edge="1">
          <mxGeometry relative="1" as="geometry">
            <mxPoint x="410" y="284" as="sourcePoint" />
            <mxPoint x="609.97" y="545.44" as="targetPoint" />
            <Array as="points">
              <mxPoint x="410" y="545" />
            </Array>
          </mxGeometry>
        </mxCell>
        <mxCell id="7l68HAIhDoD8jShRCUK5-122" value="&lt;font style=&quot;background-color: rgb(255, 255, 255);&quot; color=&quot;#000000&quot;&gt;15:0&lt;/font&gt;" style="text;html=1;align=center;verticalAlign=middle;resizable=0;points=[];autosize=1;strokeColor=#000000;fillColor=none;fontColor=#ffffff;" parent="1" vertex="1">
          <mxGeometry x="540" y="514.5" width="50" height="30" as="geometry" />
        </mxCell>
        <mxCell id="7l68HAIhDoD8jShRCUK5-123" style="edgeStyle=orthogonalEdgeStyle;rounded=0;orthogonalLoop=1;jettySize=auto;html=1;exitX=1;exitY=0.5;exitDx=0;exitDy=0;exitPerimeter=0;entryX=0.891;entryY=0.863;entryDx=0;entryDy=0;entryPerimeter=0;strokeColor=#000000;fillColor=#647687;" parent="1" edge="1">
          <mxGeometry relative="1" as="geometry">
            <mxPoint x="708" y="537.5" as="sourcePoint" />
            <mxPoint x="1400.0550000000003" y="373.44499999999994" as="targetPoint" />
            <Array as="points">
              <mxPoint x="788" y="538" />
              <mxPoint x="788" y="390" />
              <mxPoint x="1380" y="390" />
              <mxPoint x="1380" y="373" />
            </Array>
          </mxGeometry>
        </mxCell>
        <mxCell id="7l68HAIhDoD8jShRCUK5-125" style="edgeStyle=orthogonalEdgeStyle;rounded=0;orthogonalLoop=1;jettySize=auto;html=1;strokeColor=#3333FF;endArrow=classic;endFill=1;entryX=0;entryY=0.75;entryDx=0;entryDy=0;exitX=0.991;exitY=0.595;exitDx=0;exitDy=0;exitPerimeter=0;" parent="1" source="Ugpq3g7S5GpDSBXR10l6-4" target="Ugpq3g7S5GpDSBXR10l6-21" edge="1">
          <mxGeometry relative="1" as="geometry">
            <mxPoint x="799" y="320" as="targetPoint" />
            <mxPoint x="650.49" y="126.5" as="sourcePoint" />
            <Array as="points">
              <mxPoint x="1405" y="127" />
            </Array>
          </mxGeometry>
        </mxCell>
        <mxCell id="7l68HAIhDoD8jShRCUK5-126" value="&lt;font color=&quot;#3333ff&quot;&gt;&lt;span style=&quot;font-size: 10px;&quot;&gt;Arith_u_D&lt;/span&gt;&lt;/font&gt;" style="text;html=1;align=center;verticalAlign=middle;resizable=0;points=[];autosize=1;strokeColor=none;fillColor=none;" parent="1" vertex="1">
          <mxGeometry x="645" y="104.5" width="70" height="30" as="geometry" />
        </mxCell>
        <mxCell id="-DrHqJ9R1raACmmpZm2P-1" style="edgeStyle=orthogonalEdgeStyle;rounded=0;orthogonalLoop=1;jettySize=auto;html=1;strokeColor=#000000;fillColor=#647687;" parent="1" edge="1">
          <mxGeometry relative="1" as="geometry">
            <mxPoint x="520" y="224" as="sourcePoint" />
            <mxPoint x="1500" y="270" as="targetPoint" />
            <Array as="points">
              <mxPoint x="1500" y="224" />
            </Array>
          </mxGeometry>
        </mxCell>
        <mxCell id="IjFP7IJ2R8RrcnIhCh1O-3" style="edgeStyle=orthogonalEdgeStyle;rounded=0;orthogonalLoop=1;jettySize=auto;html=1;strokeColor=#3333FF;entryX=0.5;entryY=0;entryDx=0;entryDy=0;" parent="1" target="Ugpq3g7S5GpDSBXR10l6-42" edge="1">
          <mxGeometry relative="1" as="geometry">
            <mxPoint x="1997" y="293.25" as="targetPoint" />
            <mxPoint x="654.88" y="41.5" as="sourcePoint" />
            <Array as="points">
              <mxPoint x="2100" y="42" />
            </Array>
          </mxGeometry>
        </mxCell>
        <mxCell id="IjFP7IJ2R8RrcnIhCh1O-4" value="&lt;font style=&quot;font-size: 10px;&quot; color=&quot;#3333ff&quot;&gt;ByteControl_D&lt;/font&gt;" style="text;html=1;align=center;verticalAlign=middle;resizable=0;points=[];autosize=1;strokeColor=none;fillColor=none;" parent="1" vertex="1">
          <mxGeometry x="645" y="19.509999999999998" width="90" height="30" as="geometry" />
        </mxCell>
        <mxCell id="IjFP7IJ2R8RrcnIhCh1O-5" value="&lt;font color=&quot;#3333ff&quot; style=&quot;font-size: 8px;&quot;&gt;2&lt;/font&gt;" style="text;html=1;align=center;verticalAlign=middle;resizable=0;points=[];autosize=1;strokeColor=none;fillColor=none;" parent="1" vertex="1">
          <mxGeometry x="725" y="19.509999999999998" width="30" height="30" as="geometry" />
        </mxCell>
        <mxCell id="hfovps3JB4o5z4UwXtDb-1" style="edgeStyle=orthogonalEdgeStyle;rounded=0;orthogonalLoop=1;jettySize=auto;html=1;strokeColor=#3333FF;endArrow=classic;endFill=1;entryX=0.833;entryY=-0.007;entryDx=0;entryDy=0;entryPerimeter=0;" parent="1" edge="1">
          <mxGeometry relative="1" as="geometry">
            <mxPoint x="1836.6399999999999" y="236.12999999999988" as="targetPoint" />
            <mxPoint x="1837" y="41" as="sourcePoint" />
            <Array as="points">
              <mxPoint x="1837" y="41" />
              <mxPoint x="1837" y="155" />
            </Array>
          </mxGeometry>
        </mxCell>
        <mxCell id="nZXYA9FFozqnE7sLYy3P-4" value="&lt;font color=&quot;#3333ff&quot; style=&quot;font-size: 6px;&quot;&gt;6&lt;/font&gt;" style="text;html=1;align=center;verticalAlign=middle;resizable=0;points=[];autosize=1;strokeColor=none;fillColor=none;" parent="1" vertex="1">
          <mxGeometry x="1500" y="236.25" width="30" height="30" as="geometry" />
        </mxCell>
        <mxCell id="P1shMp356iEXxUVnIpec-3" style="edgeStyle=orthogonalEdgeStyle;rounded=0;orthogonalLoop=1;jettySize=auto;html=1;exitX=0.003;exitY=0.9;exitDx=0;exitDy=0;exitPerimeter=0;strokeColor=#3333FF;" parent="1" source="nZXYA9FFozqnE7sLYy3P-16" edge="1">
          <mxGeometry relative="1" as="geometry">
            <mxPoint x="160" y="810" as="targetPoint" />
            <Array as="points" />
          </mxGeometry>
        </mxCell>
        <mxCell id="nZXYA9FFozqnE7sLYy3P-14" value="&lt;font style=&quot;font-size: 10px;&quot;&gt;Write&lt;br&gt;Back&lt;/font&gt;" style="rounded=0;whiteSpace=wrap;html=1;strokeColor=#9673a6;fillColor=#e1d5e7;" parent="1" vertex="1">
          <mxGeometry x="1870" y="-100" width="40" height="912" as="geometry" />
        </mxCell>
        <mxCell id="nZXYA9FFozqnE7sLYy3P-16" value="&lt;font style=&quot;font-size: 30px;&quot;&gt;Hazard Unit&lt;/font&gt;" style="rounded=0;whiteSpace=wrap;html=1;strokeColor=#314354;fillColor=#647687;direction=south;fontColor=#ffffff;" parent="1" vertex="1">
          <mxGeometry x="-70" y="970" width="2310" height="90" as="geometry" />
        </mxCell>
        <mxCell id="P1shMp356iEXxUVnIpec-1" value="PC+4_F" style="text;html=1;align=center;verticalAlign=middle;resizable=0;points=[];autosize=1;strokeColor=none;fillColor=none;" parent="1" vertex="1">
          <mxGeometry x="275" y="550" width="70" height="30" as="geometry" />
        </mxCell>
        <mxCell id="P1shMp356iEXxUVnIpec-2" value="PC+4_D" style="text;html=1;align=center;verticalAlign=middle;resizable=0;points=[];autosize=1;strokeColor=none;fillColor=none;" parent="1" vertex="1">
          <mxGeometry x="375" y="550" width="70" height="30" as="geometry" />
        </mxCell>
        <mxCell id="P1shMp356iEXxUVnIpec-8" style="edgeStyle=orthogonalEdgeStyle;rounded=0;orthogonalLoop=1;jettySize=auto;html=1;exitX=-0.004;exitY=0.572;exitDx=0;exitDy=0;strokeColor=#3333FF;exitPerimeter=0;" parent="1" source="nZXYA9FFozqnE7sLYy3P-16" target="nZXYA9FFozqnE7sLYy3P-10" edge="1">
          <mxGeometry relative="1" as="geometry">
            <mxPoint x="920" y="810" as="targetPoint" />
            <mxPoint x="919" y="802" as="sourcePoint" />
            <Array as="points">
              <mxPoint x="919" y="968" />
              <mxPoint x="919" y="968" />
              <mxPoint x="919" y="820" />
              <mxPoint x="920" y="820" />
            </Array>
          </mxGeometry>
        </mxCell>
        <mxCell id="P1shMp356iEXxUVnIpec-13" value="INSTRUCTION_D" style="text;html=1;align=center;verticalAlign=middle;resizable=0;points=[];autosize=1;strokeColor=none;fillColor=none;" parent="1" vertex="1">
          <mxGeometry x="380" y="254.5" width="120" height="30" as="geometry" />
        </mxCell>
        <mxCell id="P1shMp356iEXxUVnIpec-15" value="INSTRUCTION_F" style="text;html=1;align=center;verticalAlign=middle;resizable=0;points=[];autosize=1;strokeColor=none;fillColor=none;" parent="1" vertex="1">
          <mxGeometry x="240" y="244.5" width="120" height="30" as="geometry" />
        </mxCell>
        <mxCell id="P1shMp356iEXxUVnIpec-18" value="&lt;font style=&quot;font-size: 10px;&quot; color=&quot;#3333ff&quot;&gt;ByteControl_E&lt;/font&gt;" style="text;html=1;align=center;verticalAlign=middle;resizable=0;points=[];autosize=1;strokeColor=none;fillColor=none;" parent="1" vertex="1">
          <mxGeometry x="928" y="19.509999999999998" width="90" height="30" as="geometry" />
        </mxCell>
        <mxCell id="P1shMp356iEXxUVnIpec-19" value="&lt;font style=&quot;font-size: 10px;&quot; color=&quot;#3333ff&quot;&gt;MemtoReg_E&lt;/font&gt;" style="text;html=1;align=center;verticalAlign=middle;resizable=0;points=[];autosize=1;strokeColor=none;fillColor=none;" parent="1" vertex="1">
          <mxGeometry x="932" y="32.5" width="80" height="30" as="geometry" />
        </mxCell>
        <mxCell id="P1shMp356iEXxUVnIpec-20" value="&lt;font style=&quot;font-size: 10px;&quot; color=&quot;#3333ff&quot;&gt;MemWrite_E&lt;/font&gt;" style="text;html=1;align=center;verticalAlign=middle;resizable=0;points=[];autosize=1;strokeColor=none;fillColor=none;" parent="1" vertex="1">
          <mxGeometry x="932" y="44.5" width="80" height="30" as="geometry" />
        </mxCell>
        <mxCell id="P1shMp356iEXxUVnIpec-22" value="&lt;font style=&quot;font-size: 10px;&quot; color=&quot;#3333ff&quot;&gt;Alu_opcode_E&lt;/font&gt;" style="text;html=1;align=center;verticalAlign=middle;resizable=0;points=[];autosize=1;strokeColor=none;fillColor=none;" parent="1" vertex="1">
          <mxGeometry x="928" y="59.5" width="90" height="30" as="geometry" />
        </mxCell>
        <mxCell id="P1shMp356iEXxUVnIpec-23" value="&lt;font style=&quot;font-size: 10px;&quot; color=&quot;#3333ff&quot;&gt;ALUSrc_E&lt;/font&gt;" style="text;html=1;align=center;verticalAlign=middle;resizable=0;points=[];autosize=1;strokeColor=none;fillColor=none;" parent="1" vertex="1">
          <mxGeometry x="930" y="73.5" width="70" height="30" as="geometry" />
        </mxCell>
        <mxCell id="P1shMp356iEXxUVnIpec-24" value="&lt;font style=&quot;font-size: 10px;&quot; color=&quot;#3333ff&quot;&gt;RegDst_E&lt;/font&gt;" style="text;html=1;align=center;verticalAlign=middle;resizable=0;points=[];autosize=1;strokeColor=none;fillColor=none;" parent="1" vertex="1">
          <mxGeometry x="930" y="84.5" width="70" height="30" as="geometry" />
        </mxCell>
        <mxCell id="P1shMp356iEXxUVnIpec-26" value="&lt;font style=&quot;font-size: 10px;&quot; color=&quot;#3333ff&quot;&gt;RegWrite_E&lt;/font&gt;" style="text;html=1;align=center;verticalAlign=middle;resizable=0;points=[];autosize=1;strokeColor=none;fillColor=none;" parent="1" vertex="1">
          <mxGeometry x="928" y="94.5" width="80" height="30" as="geometry" />
        </mxCell>
        <mxCell id="P1shMp356iEXxUVnIpec-27" value="&lt;font style=&quot;font-size: 10px;&quot; color=&quot;#3333ff&quot;&gt;Arith_u_E&lt;/font&gt;" style="text;html=1;align=center;verticalAlign=middle;resizable=0;points=[];autosize=1;strokeColor=none;fillColor=none;" parent="1" vertex="1">
          <mxGeometry x="928" y="103.5" width="70" height="30" as="geometry" />
        </mxCell>
        <mxCell id="P1shMp356iEXxUVnIpec-28" value="&lt;font size=&quot;1&quot; color=&quot;#000000&quot;&gt;&lt;span style=&quot;background-color: rgb(255, 255, 255);&quot;&gt;funct_D&lt;/span&gt;&lt;/font&gt;" style="text;html=1;align=center;verticalAlign=middle;resizable=0;points=[];autosize=1;strokeColor=none;fillColor=none;" parent="1" vertex="1">
          <mxGeometry x="836" y="184.5" width="60" height="30" as="geometry" />
        </mxCell>
        <mxCell id="P1shMp356iEXxUVnIpec-29" value="&lt;font size=&quot;1&quot; color=&quot;#000000&quot;&gt;&lt;span style=&quot;background-color: rgb(255, 255, 255);&quot;&gt;funct_E&lt;/span&gt;&lt;/font&gt;" style="text;html=1;align=center;verticalAlign=middle;resizable=0;points=[];autosize=1;strokeColor=none;fillColor=none;" parent="1" vertex="1">
          <mxGeometry x="926" y="186.5" width="60" height="30" as="geometry" />
        </mxCell>
        <mxCell id="P1shMp356iEXxUVnIpec-31" value="&lt;font style=&quot;background-color: rgb(255, 255, 255); font-size: 10px;&quot; color=&quot;#000000&quot;&gt;opcode_D&lt;/font&gt;" style="text;html=1;align=center;verticalAlign=middle;resizable=0;points=[];autosize=1;strokeColor=none;fillColor=none;" parent="1" vertex="1">
          <mxGeometry x="825" y="200.49" width="70" height="30" as="geometry" />
        </mxCell>
        <mxCell id="P1shMp356iEXxUVnIpec-32" value="&lt;font style=&quot;background-color: rgb(255, 255, 255); font-size: 10px;&quot; color=&quot;#000000&quot;&gt;opcode_E&lt;/font&gt;" style="text;html=1;align=center;verticalAlign=middle;resizable=0;points=[];autosize=1;strokeColor=none;fillColor=none;" parent="1" vertex="1">
          <mxGeometry x="925" y="200.49" width="70" height="30" as="geometry" />
        </mxCell>
        <mxCell id="P1shMp356iEXxUVnIpec-35" value="&lt;font style=&quot;font-size: 10px;&quot; color=&quot;#000000&quot;&gt;src_a_D&lt;/font&gt;" style="text;html=1;align=center;verticalAlign=middle;resizable=0;points=[];autosize=1;strokeColor=none;fillColor=none;" parent="1" vertex="1">
          <mxGeometry x="835" y="254.5" width="60" height="30" as="geometry" />
        </mxCell>
        <mxCell id="P1shMp356iEXxUVnIpec-36" value="&lt;font style=&quot;font-size: 10px;&quot;&gt;src_a_E&lt;/font&gt;" style="text;html=1;align=center;verticalAlign=middle;resizable=0;points=[];autosize=1;strokeColor=none;fillColor=none;" parent="1" vertex="1">
          <mxGeometry x="920" y="255" width="60" height="30" as="geometry" />
        </mxCell>
        <mxCell id="P1shMp356iEXxUVnIpec-37" value="&lt;font style=&quot;font-size: 10px;&quot;&gt;src_b_D&lt;/font&gt;" style="text;html=1;align=center;verticalAlign=middle;resizable=0;points=[];autosize=1;strokeColor=none;fillColor=none;" parent="1" vertex="1">
          <mxGeometry x="835" y="297.5" width="60" height="30" as="geometry" />
        </mxCell>
        <mxCell id="P1shMp356iEXxUVnIpec-38" value="&lt;font style=&quot;font-size: 10px;&quot;&gt;src_b_E&lt;/font&gt;" style="text;html=1;align=center;verticalAlign=middle;resizable=0;points=[];autosize=1;strokeColor=none;fillColor=none;" parent="1" vertex="1">
          <mxGeometry x="923" y="297.5" width="60" height="30" as="geometry" />
        </mxCell>
        <mxCell id="P1shMp356iEXxUVnIpec-39" value="&lt;font style=&quot;font-size: 9px;&quot; color=&quot;#000000&quot;&gt;SignExt_D&lt;/font&gt;" style="text;html=1;align=center;verticalAlign=middle;resizable=0;points=[];autosize=1;strokeColor=none;fillColor=none;" parent="1" vertex="1">
          <mxGeometry x="829" y="353.44" width="70" height="30" as="geometry" />
        </mxCell>
        <mxCell id="P1shMp356iEXxUVnIpec-40" value="&lt;font style=&quot;font-size: 9px;&quot; color=&quot;#000000&quot;&gt;SignExt_E&lt;/font&gt;" style="text;html=1;align=center;verticalAlign=middle;resizable=0;points=[];autosize=1;strokeColor=none;fillColor=none;" parent="1" vertex="1">
          <mxGeometry x="920" y="353.44" width="70" height="30" as="geometry" />
        </mxCell>
        <mxCell id="P1shMp356iEXxUVnIpec-41" value="&lt;font style=&quot;font-size: 9px;&quot; color=&quot;#000000&quot;&gt;ZeroExt_E&lt;/font&gt;" style="text;html=1;align=center;verticalAlign=middle;resizable=0;points=[];autosize=1;strokeColor=none;fillColor=none;" parent="1" vertex="1">
          <mxGeometry x="920" y="367" width="70" height="30" as="geometry" />
        </mxCell>
        <mxCell id="P1shMp356iEXxUVnIpec-42" value="&lt;font style=&quot;font-size: 9px;&quot; color=&quot;#000000&quot;&gt;ZeroExt_D&lt;/font&gt;" style="text;html=1;align=center;verticalAlign=middle;resizable=0;points=[];autosize=1;strokeColor=none;fillColor=none;" parent="1" vertex="1">
          <mxGeometry x="829" y="368" width="70" height="30" as="geometry" />
        </mxCell>
        <mxCell id="P1shMp356iEXxUVnIpec-43" value="&lt;font style=&quot;font-size: 10px;&quot; color=&quot;#000000&quot;&gt;RT_D&lt;/font&gt;" style="text;html=1;align=center;verticalAlign=middle;resizable=0;points=[];autosize=1;strokeColor=none;fillColor=none;" parent="1" vertex="1">
          <mxGeometry x="845" y="389.5" width="50" height="30" as="geometry" />
        </mxCell>
        <mxCell id="P1shMp356iEXxUVnIpec-44" value="&lt;font style=&quot;font-size: 10px;&quot; color=&quot;#000000&quot;&gt;RD_D&lt;/font&gt;" style="text;html=1;align=center;verticalAlign=middle;resizable=0;points=[];autosize=1;strokeColor=none;fillColor=none;" parent="1" vertex="1">
          <mxGeometry x="844" y="403" width="50" height="30" as="geometry" />
        </mxCell>
        <mxCell id="P1shMp356iEXxUVnIpec-45" value="&lt;font style=&quot;font-size: 10px;&quot; color=&quot;#000000&quot;&gt;RT_E&lt;/font&gt;" style="text;html=1;align=center;verticalAlign=middle;resizable=0;points=[];autosize=1;strokeColor=none;fillColor=none;" parent="1" vertex="1">
          <mxGeometry x="925" y="389.5" width="50" height="30" as="geometry" />
        </mxCell>
        <mxCell id="P1shMp356iEXxUVnIpec-46" value="&lt;font style=&quot;font-size: 10px;&quot; color=&quot;#000000&quot;&gt;RD_E&lt;/font&gt;" style="text;html=1;align=center;verticalAlign=middle;resizable=0;points=[];autosize=1;strokeColor=none;fillColor=none;" parent="1" vertex="1">
          <mxGeometry x="925" y="403" width="50" height="30" as="geometry" />
        </mxCell>
        <mxCell id="P1shMp356iEXxUVnIpec-47" value="PC+4_D" style="text;html=1;align=center;verticalAlign=middle;resizable=0;points=[];autosize=1;strokeColor=none;fillColor=none;" parent="1" vertex="1">
          <mxGeometry x="820" y="550" width="70" height="30" as="geometry" />
        </mxCell>
        <mxCell id="P1shMp356iEXxUVnIpec-48" value="PC+4_E" style="text;html=1;align=center;verticalAlign=middle;resizable=0;points=[];autosize=1;strokeColor=none;fillColor=none;" parent="1" vertex="1">
          <mxGeometry x="921" y="550" width="70" height="30" as="geometry" />
        </mxCell>
        <mxCell id="P1shMp356iEXxUVnIpec-49" value="PC+4_E" style="text;html=1;align=center;verticalAlign=middle;resizable=0;points=[];autosize=1;strokeColor=none;fillColor=none;" parent="1" vertex="1">
          <mxGeometry x="1544" y="550" width="70" height="30" as="geometry" />
        </mxCell>
        <mxCell id="P1shMp356iEXxUVnIpec-50" value="PC+4_M" style="text;html=1;align=center;verticalAlign=middle;resizable=0;points=[];autosize=1;strokeColor=none;fillColor=none;" parent="1" vertex="1">
          <mxGeometry x="1670" y="550" width="70" height="30" as="geometry" />
        </mxCell>
        <mxCell id="P1shMp356iEXxUVnIpec-51" value="PC+4_M" style="text;html=1;align=center;verticalAlign=middle;resizable=0;points=[];autosize=1;strokeColor=none;fillColor=none;" parent="1" vertex="1">
          <mxGeometry x="1790" y="550" width="70" height="30" as="geometry" />
        </mxCell>
        <mxCell id="P1shMp356iEXxUVnIpec-52" value="PC+4_W" style="text;html=1;align=center;verticalAlign=middle;resizable=0;points=[];autosize=1;strokeColor=none;fillColor=none;" parent="1" vertex="1">
          <mxGeometry x="1915" y="550" width="70" height="30" as="geometry" />
        </mxCell>
        <mxCell id="P1shMp356iEXxUVnIpec-53" value="&lt;font style=&quot;font-size: 10px;&quot;&gt;ALU_result_E&lt;/font&gt;" style="text;html=1;align=center;verticalAlign=middle;resizable=0;points=[];autosize=1;strokeColor=none;fillColor=none;" parent="1" vertex="1">
          <mxGeometry x="1530" y="297" width="90" height="30" as="geometry" />
        </mxCell>
        <mxCell id="P1shMp356iEXxUVnIpec-54" value="&lt;font style=&quot;font-size: 10px;&quot;&gt;ALU_result_M&lt;/font&gt;" style="text;html=1;align=center;verticalAlign=middle;resizable=0;points=[];autosize=1;strokeColor=none;fillColor=none;" parent="1" vertex="1">
          <mxGeometry x="1651" y="294.5" width="90" height="30" as="geometry" />
        </mxCell>
        <mxCell id="P1shMp356iEXxUVnIpec-55" value="&lt;font style=&quot;font-size: 10px;&quot;&gt;Read_&lt;br&gt;Data_M&lt;/font&gt;" style="text;html=1;align=center;verticalAlign=middle;resizable=0;points=[];autosize=1;strokeColor=none;fillColor=none;" parent="1" vertex="1">
          <mxGeometry x="1821" y="278.57" width="60" height="40" as="geometry" />
        </mxCell>
        <mxCell id="P1shMp356iEXxUVnIpec-56" value="&lt;font style=&quot;font-size: 10px;&quot;&gt;Read&lt;br&gt;_Data_W&lt;/font&gt;" style="text;html=1;align=center;verticalAlign=middle;resizable=0;points=[];autosize=1;strokeColor=none;fillColor=none;" parent="1" vertex="1">
          <mxGeometry x="1898" y="276" width="70" height="40" as="geometry" />
        </mxCell>
        <mxCell id="P1shMp356iEXxUVnIpec-57" value="Branch&lt;br&gt;Control" style="ellipse;whiteSpace=wrap;html=1;" parent="1" vertex="1">
          <mxGeometry x="780" y="137.5" width="60" height="60" as="geometry" />
        </mxCell>
        <mxCell id="P1shMp356iEXxUVnIpec-60" value="" style="edgeStyle=orthogonalEdgeStyle;rounded=0;orthogonalLoop=1;jettySize=auto;html=1;strokeColor=#000000;" parent="1" target="P1shMp356iEXxUVnIpec-57" edge="1">
          <mxGeometry relative="1" as="geometry">
            <mxPoint x="720" y="224" as="sourcePoint" />
            <mxPoint x="758" y="184" as="targetPoint" />
            <Array as="points">
              <mxPoint x="720" y="160" />
            </Array>
          </mxGeometry>
        </mxCell>
        <mxCell id="P1shMp356iEXxUVnIpec-64" style="edgeStyle=orthogonalEdgeStyle;rounded=0;orthogonalLoop=1;jettySize=auto;html=1;strokeColor=#000000;fillColor=#647687;entryX=-0.044;entryY=0.607;entryDx=0;entryDy=0;entryPerimeter=0;" parent="1" target="P1shMp356iEXxUVnIpec-57" edge="1">
          <mxGeometry relative="1" as="geometry">
            <mxPoint x="540" y="294" as="sourcePoint" />
            <mxPoint x="770" y="174.66" as="targetPoint" />
            <Array as="points">
              <mxPoint x="540" y="200" />
              <mxPoint x="730" y="200" />
              <mxPoint x="730" y="174" />
            </Array>
          </mxGeometry>
        </mxCell>
        <mxCell id="P1shMp356iEXxUVnIpec-65" value="" style="shape=trapezoid;perimeter=trapezoidPerimeter;whiteSpace=wrap;html=1;fixedSize=1;rotation=90;strokeColor=#000000;fillColor=#647687;fontColor=#ffffff;" parent="1" vertex="1">
          <mxGeometry x="745" y="271.5" width="50" height="15" as="geometry" />
        </mxCell>
        <mxCell id="P1shMp356iEXxUVnIpec-66" value="" style="shape=trapezoid;perimeter=trapezoidPerimeter;whiteSpace=wrap;html=1;fixedSize=1;rotation=90;strokeColor=#000000;fillColor=#647687;fontColor=#ffffff;" parent="1" vertex="1">
          <mxGeometry x="782.5" y="312.5" width="55" height="15" as="geometry" />
        </mxCell>
        <mxCell id="P1shMp356iEXxUVnIpec-69" style="edgeStyle=orthogonalEdgeStyle;rounded=0;orthogonalLoop=1;jettySize=auto;html=1;entryX=0.744;entryY=0.938;entryDx=0;entryDy=0;entryPerimeter=0;" parent="1" target="P1shMp356iEXxUVnIpec-57" edge="1">
          <mxGeometry relative="1" as="geometry">
            <mxPoint x="825" y="320" as="sourcePoint" />
            <Array as="points">
              <mxPoint x="825" y="315" />
              <mxPoint x="825" y="243" />
              <mxPoint x="825" y="243" />
            </Array>
          </mxGeometry>
        </mxCell>
        <mxCell id="P1shMp356iEXxUVnIpec-70" value="" style="edgeStyle=orthogonalEdgeStyle;rounded=0;orthogonalLoop=1;jettySize=auto;html=1;strokeColor=#000000;entryX=0.325;entryY=0.981;entryDx=0;entryDy=0;entryPerimeter=0;" parent="1" target="P1shMp356iEXxUVnIpec-57" edge="1">
          <mxGeometry relative="1" as="geometry">
            <mxPoint x="800" y="280" as="sourcePoint" />
            <mxPoint x="811.5" y="244.01999999999998" as="targetPoint" />
            <Array as="points">
              <mxPoint x="800" y="244" />
              <mxPoint x="800" y="244" />
            </Array>
          </mxGeometry>
        </mxCell>
        <mxCell id="P1shMp356iEXxUVnIpec-72" value="" style="edgeStyle=orthogonalEdgeStyle;rounded=0;orthogonalLoop=1;jettySize=auto;html=1;strokeColor=#000000;exitX=1;exitY=0.25;exitDx=0;exitDy=0;" parent="1" source="7l68HAIhDoD8jShRCUK5-28" edge="1">
          <mxGeometry relative="1" as="geometry">
            <mxPoint x="705" y="270.13" as="sourcePoint" />
            <mxPoint x="760" y="269.76" as="targetPoint" />
            <Array as="points">
              <mxPoint x="740" y="280" />
              <mxPoint x="740" y="270" />
            </Array>
          </mxGeometry>
        </mxCell>
        <mxCell id="P1shMp356iEXxUVnIpec-73" value="" style="edgeStyle=orthogonalEdgeStyle;rounded=0;orthogonalLoop=1;jettySize=auto;html=1;strokeColor=#000000;exitX=1;exitY=0.25;exitDx=0;exitDy=0;" parent="1" edge="1">
          <mxGeometry relative="1" as="geometry">
            <mxPoint x="710" y="319.74" as="sourcePoint" />
            <mxPoint x="800" y="310" as="targetPoint" />
            <Array as="points">
              <mxPoint x="740" y="319.74" />
              <mxPoint x="740" y="309.74" />
            </Array>
          </mxGeometry>
        </mxCell>
        <mxCell id="P1shMp356iEXxUVnIpec-74" value="" style="edgeStyle=orthogonalEdgeStyle;rounded=0;orthogonalLoop=1;jettySize=auto;html=1;strokeColor=#000000;entryX=0.639;entryY=0.845;entryDx=0;entryDy=0;entryPerimeter=0;" parent="1" edge="1">
          <mxGeometry relative="1" as="geometry">
            <mxPoint x="1150" y="840" as="sourcePoint" />
            <mxPoint x="759.8250000000003" y="285.9500000000003" as="targetPoint" />
            <Array as="points">
              <mxPoint x="1050" y="840" />
              <mxPoint x="745" y="840" />
              <mxPoint x="745" y="286" />
            </Array>
          </mxGeometry>
        </mxCell>
        <mxCell id="P1shMp356iEXxUVnIpec-75" value="" style="edgeStyle=orthogonalEdgeStyle;rounded=0;orthogonalLoop=1;jettySize=auto;html=1;strokeColor=#000000;entryX=0.628;entryY=0.948;entryDx=0;entryDy=0;entryPerimeter=0;" parent="1" edge="1">
          <mxGeometry relative="1" as="geometry">
            <mxPoint x="745" y="327" as="sourcePoint" />
            <mxPoint x="798.2799999999997" y="327.0400000000002" as="targetPoint" />
            <Array as="points">
              <mxPoint x="745" y="327" />
            </Array>
          </mxGeometry>
        </mxCell>
        <mxCell id="P1shMp356iEXxUVnIpec-76" style="edgeStyle=orthogonalEdgeStyle;rounded=0;orthogonalLoop=1;jettySize=auto;html=1;strokeColor=#3333FF;endArrow=classic;endFill=1;entryX=1;entryY=0.25;entryDx=0;entryDy=0;exitX=0.001;exitY=0.618;exitDx=0;exitDy=0;exitPerimeter=0;" parent="1" source="nZXYA9FFozqnE7sLYy3P-16" target="P1shMp356iEXxUVnIpec-66" edge="1">
          <mxGeometry relative="1" as="geometry">
            <mxPoint x="1378" y="982" as="targetPoint" />
            <mxPoint x="810" y="710" as="sourcePoint" />
            <Array as="points">
              <mxPoint x="812" y="966" />
              <mxPoint x="812" y="966" />
            </Array>
          </mxGeometry>
        </mxCell>
        <mxCell id="P1shMp356iEXxUVnIpec-77" style="edgeStyle=orthogonalEdgeStyle;rounded=0;orthogonalLoop=1;jettySize=auto;html=1;strokeColor=#3333FF;endArrow=classic;endFill=1;entryX=1;entryY=0.25;entryDx=0;entryDy=0;exitX=-0.01;exitY=0.637;exitDx=0;exitDy=0;exitPerimeter=0;" parent="1" source="nZXYA9FFozqnE7sLYy3P-16" edge="1">
          <mxGeometry relative="1" as="geometry">
            <mxPoint x="768.5" y="294.5" as="targetPoint" />
            <mxPoint x="771.5" y="925.5" as="sourcePoint" />
            <Array as="points" />
          </mxGeometry>
        </mxCell>
        <mxCell id="P1shMp356iEXxUVnIpec-78" value="&lt;font color=&quot;#3333ff&quot; style=&quot;font-size: 10px;&quot;&gt;ForwardBD&lt;/font&gt;" style="text;html=1;align=center;verticalAlign=middle;resizable=0;points=[];autosize=1;strokeColor=none;fillColor=none;rotation=90;" parent="1" vertex="1">
          <mxGeometry x="784" y="925" width="70" height="30" as="geometry" />
        </mxCell>
        <mxCell id="P1shMp356iEXxUVnIpec-79" value="&lt;font color=&quot;#3333ff&quot; style=&quot;font-size: 10px;&quot;&gt;ForwardAD&lt;/font&gt;" style="text;html=1;align=center;verticalAlign=middle;resizable=0;points=[];autosize=1;strokeColor=none;fillColor=none;rotation=90;" parent="1" vertex="1">
          <mxGeometry x="740" y="925" width="70" height="30" as="geometry" />
        </mxCell>
        <mxCell id="P1shMp356iEXxUVnIpec-80" value="&lt;font color=&quot;#3333ff&quot; style=&quot;font-size: 10px;&quot;&gt;StallF&lt;/font&gt;" style="text;html=1;align=center;verticalAlign=middle;resizable=0;points=[];autosize=1;strokeColor=none;fillColor=none;rotation=90;" parent="1" vertex="1">
          <mxGeometry x="146" y="940" width="50" height="30" as="geometry" />
        </mxCell>
        <mxCell id="P1shMp356iEXxUVnIpec-81" value="&lt;font style=&quot;font-size: 8px;&quot;&gt;EN&lt;/font&gt;" style="text;html=1;align=center;verticalAlign=middle;resizable=0;points=[];autosize=1;strokeColor=none;fillColor=none;" parent="1" vertex="1">
          <mxGeometry x="148" y="774" width="30" height="30" as="geometry" />
        </mxCell>
        <mxCell id="P1shMp356iEXxUVnIpec-82" value="&lt;font style=&quot;font-size: 8px;&quot;&gt;EN&lt;/font&gt;" style="text;html=1;align=center;verticalAlign=middle;resizable=0;points=[];autosize=1;strokeColor=none;fillColor=none;" parent="1" vertex="1">
          <mxGeometry x="335" y="775" width="30" height="30" as="geometry" />
        </mxCell>
        <mxCell id="P1shMp356iEXxUVnIpec-83" value="&lt;font style=&quot;font-size: 8px;&quot;&gt;CLR&lt;/font&gt;" style="text;html=1;align=center;verticalAlign=middle;resizable=0;points=[];autosize=1;strokeColor=none;fillColor=none;" parent="1" vertex="1">
          <mxGeometry x="350" y="775" width="40" height="30" as="geometry" />
        </mxCell>
        <mxCell id="P1shMp356iEXxUVnIpec-84" value="&lt;font style=&quot;font-size: 8px;&quot;&gt;CLR&lt;/font&gt;" style="text;html=1;align=center;verticalAlign=middle;resizable=0;points=[];autosize=1;strokeColor=none;fillColor=none;" parent="1" vertex="1">
          <mxGeometry x="900" y="775" width="40" height="30" as="geometry" />
        </mxCell>
        <mxCell id="P1shMp356iEXxUVnIpec-85" style="edgeStyle=orthogonalEdgeStyle;rounded=0;orthogonalLoop=1;jettySize=auto;html=1;exitX=0.003;exitY=0.9;exitDx=0;exitDy=0;exitPerimeter=0;strokeColor=#3333FF;" parent="1" edge="1">
          <mxGeometry relative="1" as="geometry">
            <mxPoint x="349" y="810" as="targetPoint" />
            <mxPoint x="349" y="970" as="sourcePoint" />
            <Array as="points" />
          </mxGeometry>
        </mxCell>
        <mxCell id="P1shMp356iEXxUVnIpec-86" value="&lt;font color=&quot;#3333ff&quot; style=&quot;font-size: 10px;&quot;&gt;StallD&lt;/font&gt;" style="text;html=1;align=center;verticalAlign=middle;resizable=0;points=[];autosize=1;strokeColor=none;fillColor=none;rotation=90;" parent="1" vertex="1">
          <mxGeometry x="332" y="935" width="50" height="30" as="geometry" />
        </mxCell>
        <mxCell id="P1shMp356iEXxUVnIpec-88" value="" style="shape=waypoint;sketch=0;size=6;pointerEvents=1;points=[];resizable=0;rotatable=0;perimeter=centerPerimeter;snapToPoint=1;strokeWidth=2;fillStyle=auto;fontColor=#3333FF;strokeColor=#3333FF;" parent="1" vertex="1">
          <mxGeometry x="339" y="796" width="20" height="20" as="geometry" />
        </mxCell>
        <mxCell id="P1shMp356iEXxUVnIpec-89" style="edgeStyle=orthogonalEdgeStyle;rounded=0;orthogonalLoop=1;jettySize=auto;html=1;strokeColor=#3333FF;fillColor=#647687;" parent="1" edge="1">
          <mxGeometry relative="1" as="geometry">
            <mxPoint x="735" y="130" as="sourcePoint" />
            <mxPoint x="724.99" y="970" as="targetPoint" />
            <Array as="points">
              <mxPoint x="734.99" y="970" />
            </Array>
          </mxGeometry>
        </mxCell>
        <mxCell id="P1shMp356iEXxUVnIpec-90" value="&lt;font color=&quot;#3333ff&quot; style=&quot;font-size: 10px;&quot;&gt;Branch_D&lt;/font&gt;" style="text;html=1;align=center;verticalAlign=middle;resizable=0;points=[];autosize=1;strokeColor=none;fillColor=none;rotation=90;" parent="1" vertex="1">
          <mxGeometry x="714" y="925" width="70" height="30" as="geometry" />
        </mxCell>
        <mxCell id="P1shMp356iEXxUVnIpec-91" style="edgeStyle=orthogonalEdgeStyle;rounded=0;orthogonalLoop=1;jettySize=auto;html=1;entryX=0.013;entryY=0.608;entryDx=0;entryDy=0;entryPerimeter=0;" parent="1" target="nZXYA9FFozqnE7sLYy3P-16" edge="1">
          <mxGeometry relative="1" as="geometry">
            <mxPoint x="836" y="412" as="sourcePoint" />
            <mxPoint x="836" y="286" as="targetPoint" />
            <Array as="points">
              <mxPoint x="836" y="971" />
            </Array>
          </mxGeometry>
        </mxCell>
        <mxCell id="P1shMp356iEXxUVnIpec-92" style="edgeStyle=orthogonalEdgeStyle;rounded=0;orthogonalLoop=1;jettySize=auto;html=1;entryX=-0.009;entryY=0.603;entryDx=0;entryDy=0;entryPerimeter=0;" parent="1" target="nZXYA9FFozqnE7sLYy3P-16" edge="1">
          <mxGeometry relative="1" as="geometry">
            <mxPoint x="848" y="435" as="sourcePoint" />
            <mxPoint x="847.0699999999999" y="964.0999999999999" as="targetPoint" />
            <Array as="points">
              <mxPoint x="848" y="955" />
              <mxPoint x="847" y="955" />
            </Array>
          </mxGeometry>
        </mxCell>
        <mxCell id="P1shMp356iEXxUVnIpec-93" style="edgeStyle=orthogonalEdgeStyle;rounded=0;orthogonalLoop=1;jettySize=auto;html=1;strokeColor=#000000;fillColor=#647687;exitX=0.167;exitY=0.974;exitDx=0;exitDy=0;exitPerimeter=0;" parent="1" source="7l68HAIhDoD8jShRCUK5-99" edge="1">
          <mxGeometry relative="1" as="geometry">
            <mxPoint x="540" y="434.5" as="sourcePoint" />
            <mxPoint x="970" y="970" as="targetPoint" />
            <Array as="points">
              <mxPoint x="530" y="435" />
              <mxPoint x="970" y="435" />
            </Array>
          </mxGeometry>
        </mxCell>
        <mxCell id="P1shMp356iEXxUVnIpec-94" value="&lt;font style=&quot;font-size: 6px;&quot; color=&quot;#000000&quot;&gt;RS&lt;/font&gt;" style="text;html=1;align=center;verticalAlign=middle;resizable=0;points=[];autosize=1;strokeColor=none;fillColor=none;" parent="1" vertex="1">
          <mxGeometry x="525" y="413" width="30" height="30" as="geometry" />
        </mxCell>
        <mxCell id="P1shMp356iEXxUVnIpec-95" value="&lt;font style=&quot;font-size: 10px;&quot; color=&quot;#000000&quot;&gt;RS_D&lt;/font&gt;" style="text;html=1;align=center;verticalAlign=middle;resizable=0;points=[];autosize=1;strokeColor=none;fillColor=none;" parent="1" vertex="1">
          <mxGeometry x="844" y="415" width="50" height="30" as="geometry" />
        </mxCell>
        <mxCell id="P1shMp356iEXxUVnIpec-96" value="&lt;font style=&quot;font-size: 10px;&quot; color=&quot;#000000&quot;&gt;RS_E&lt;/font&gt;" style="text;html=1;align=center;verticalAlign=middle;resizable=0;points=[];autosize=1;strokeColor=none;fillColor=none;" parent="1" vertex="1">
          <mxGeometry x="925" y="415" width="50" height="30" as="geometry" />
        </mxCell>
        <mxCell id="P1shMp356iEXxUVnIpec-97" style="edgeStyle=orthogonalEdgeStyle;rounded=0;orthogonalLoop=1;jettySize=auto;html=1;entryX=0.013;entryY=0.608;entryDx=0;entryDy=0;entryPerimeter=0;" parent="1" edge="1">
          <mxGeometry relative="1" as="geometry">
            <mxPoint x="986" y="412" as="sourcePoint" />
            <mxPoint x="986" y="971" as="targetPoint" />
            <Array as="points">
              <mxPoint x="986" y="690" />
              <mxPoint x="986" y="690" />
            </Array>
          </mxGeometry>
        </mxCell>
        <mxCell id="P1shMp356iEXxUVnIpec-98" value="" style="shape=trapezoid;perimeter=trapezoidPerimeter;whiteSpace=wrap;html=1;fixedSize=1;rotation=90;strokeColor=#000000;fillColor=#647687;fontColor=#ffffff;" parent="1" vertex="1">
          <mxGeometry x="1110" y="268.38" width="70" height="21.25" as="geometry" />
        </mxCell>
        <mxCell id="P1shMp356iEXxUVnIpec-99" value="" style="shape=trapezoid;perimeter=trapezoidPerimeter;whiteSpace=wrap;html=1;fixedSize=1;rotation=90;strokeColor=#000000;fillColor=#647687;fontColor=#ffffff;" parent="1" vertex="1">
          <mxGeometry x="1170" y="327.5" width="70" height="21.25" as="geometry" />
        </mxCell>
        <mxCell id="P1shMp356iEXxUVnIpec-101" value="" style="edgeStyle=orthogonalEdgeStyle;rounded=0;orthogonalLoop=1;jettySize=auto;html=1;strokeColor=#000000;" parent="1" edge="1">
          <mxGeometry relative="1" as="geometry">
            <mxPoint x="1690" y="320" as="sourcePoint" />
            <mxPoint x="1135" y="280" as="targetPoint" />
            <Array as="points">
              <mxPoint x="1690" y="840" />
              <mxPoint x="1045" y="840" />
              <mxPoint x="1045" y="280" />
            </Array>
          </mxGeometry>
        </mxCell>
        <mxCell id="P1shMp356iEXxUVnIpec-102" value="" style="edgeStyle=orthogonalEdgeStyle;rounded=0;orthogonalLoop=1;jettySize=auto;html=1;strokeColor=#000000;" parent="1" edge="1">
          <mxGeometry relative="1" as="geometry">
            <mxPoint x="1070" y="530" as="sourcePoint" />
            <mxPoint x="1135" y="299.5" as="targetPoint" />
            <Array as="points">
              <mxPoint x="1070" y="300" />
            </Array>
          </mxGeometry>
        </mxCell>
        <mxCell id="P1shMp356iEXxUVnIpec-103" value="" style="edgeStyle=orthogonalEdgeStyle;rounded=0;orthogonalLoop=1;jettySize=auto;html=1;strokeColor=#000000;exitX=0.5;exitY=0;exitDx=0;exitDy=0;" parent="1" source="P1shMp356iEXxUVnIpec-98" edge="1">
          <mxGeometry relative="1" as="geometry">
            <mxPoint x="1260" y="539.63" as="sourcePoint" />
            <mxPoint x="1480" y="290" as="targetPoint" />
            <Array as="points">
              <mxPoint x="1156" y="280" />
              <mxPoint x="1460" y="280" />
              <mxPoint x="1460" y="290" />
            </Array>
          </mxGeometry>
        </mxCell>
        <mxCell id="P1shMp356iEXxUVnIpec-104" value="" style="edgeStyle=orthogonalEdgeStyle;rounded=0;orthogonalLoop=1;jettySize=auto;html=1;strokeColor=#000000;exitX=0.532;exitY=0.036;exitDx=0;exitDy=0;entryX=0.21;entryY=1;entryDx=0;entryDy=0;entryPerimeter=0;exitPerimeter=0;" parent="1" source="P1shMp356iEXxUVnIpec-99" target="Ugpq3g7S5GpDSBXR10l6-21" edge="1">
          <mxGeometry relative="1" as="geometry">
            <mxPoint x="1166" y="289" as="sourcePoint" />
            <mxPoint x="1370" y="340" as="targetPoint" />
            <Array as="points">
              <mxPoint x="1220" y="340" />
            </Array>
          </mxGeometry>
        </mxCell>
        <mxCell id="P1shMp356iEXxUVnIpec-105" value="" style="edgeStyle=orthogonalEdgeStyle;rounded=0;orthogonalLoop=1;jettySize=auto;html=1;strokeColor=#000000;entryX=0.452;entryY=0.946;entryDx=0;entryDy=0;entryPerimeter=0;" parent="1" target="P1shMp356iEXxUVnIpec-99" edge="1">
          <mxGeometry relative="1" as="geometry">
            <mxPoint x="1045" y="335" as="sourcePoint" />
            <mxPoint x="1188" y="334.85999999999996" as="targetPoint" />
            <Array as="points">
              <mxPoint x="1055" y="335" />
            </Array>
          </mxGeometry>
        </mxCell>
        <mxCell id="P1shMp356iEXxUVnIpec-106" value="" style="edgeStyle=orthogonalEdgeStyle;rounded=0;orthogonalLoop=1;jettySize=auto;html=1;strokeColor=#000000;entryX=0.21;entryY=1;entryDx=0;entryDy=0;entryPerimeter=0;" parent="1" edge="1">
          <mxGeometry relative="1" as="geometry">
            <mxPoint x="1070" y="350" as="sourcePoint" />
            <mxPoint x="1193" y="347.53999999999996" as="targetPoint" />
            <Array as="points">
              <mxPoint x="1070" y="348" />
              <mxPoint x="1100" y="348" />
            </Array>
          </mxGeometry>
        </mxCell>
        <mxCell id="P1shMp356iEXxUVnIpec-107" style="edgeStyle=orthogonalEdgeStyle;rounded=0;orthogonalLoop=1;jettySize=auto;html=1;strokeColor=#3333FF;endArrow=classic;endFill=1;entryX=1;entryY=0.25;entryDx=0;entryDy=0;exitX=-0.005;exitY=0.474;exitDx=0;exitDy=0;exitPerimeter=0;" parent="1" source="nZXYA9FFozqnE7sLYy3P-16" edge="1">
          <mxGeometry relative="1" as="geometry">
            <mxPoint x="1144.66" y="305" as="targetPoint" />
            <mxPoint x="1144.66" y="940" as="sourcePoint" />
            <Array as="points">
              <mxPoint x="1145" y="936" />
              <mxPoint x="1145" y="936" />
            </Array>
          </mxGeometry>
        </mxCell>
        <mxCell id="P1shMp356iEXxUVnIpec-108" style="edgeStyle=orthogonalEdgeStyle;rounded=0;orthogonalLoop=1;jettySize=auto;html=1;strokeColor=#3333FF;endArrow=classic;endFill=1;entryX=1;entryY=0.25;entryDx=0;entryDy=0;exitX=-0.01;exitY=0.446;exitDx=0;exitDy=0;exitPerimeter=0;" parent="1" source="nZXYA9FFozqnE7sLYy3P-16" edge="1">
          <mxGeometry relative="1" as="geometry">
            <mxPoint x="1210" y="358" as="targetPoint" />
            <mxPoint x="1250" y="910" as="sourcePoint" />
            <Array as="points">
              <mxPoint x="1210" y="967" />
              <mxPoint x="1210" y="967" />
            </Array>
          </mxGeometry>
        </mxCell>
        <mxCell id="P1shMp356iEXxUVnIpec-109" value="&lt;font color=&quot;#3333ff&quot; style=&quot;font-size: 10px;&quot;&gt;ForwardAE&lt;/font&gt;" style="text;html=1;align=center;verticalAlign=middle;resizable=0;points=[];autosize=1;strokeColor=none;fillColor=none;rotation=90;" parent="1" vertex="1">
          <mxGeometry x="1120" y="925" width="70" height="30" as="geometry" />
        </mxCell>
        <mxCell id="P1shMp356iEXxUVnIpec-110" value="&lt;font color=&quot;#3333ff&quot; style=&quot;font-size: 10px;&quot;&gt;ForwardBE&lt;/font&gt;" style="text;html=1;align=center;verticalAlign=middle;resizable=0;points=[];autosize=1;strokeColor=none;fillColor=none;rotation=90;" parent="1" vertex="1">
          <mxGeometry x="1187" y="926" width="70" height="30" as="geometry" />
        </mxCell>
        <mxCell id="P1shMp356iEXxUVnIpec-111" value="&lt;font style=&quot;font-size: 10px;&quot; color=&quot;#000000&quot;&gt;WriteReg_E&lt;/font&gt;" style="text;html=1;align=center;verticalAlign=middle;resizable=0;points=[];autosize=1;strokeColor=none;fillColor=none;" parent="1" vertex="1">
          <mxGeometry x="1549.38" y="396.25" width="80" height="30" as="geometry" />
        </mxCell>
        <mxCell id="P1shMp356iEXxUVnIpec-112" value="&lt;font style=&quot;font-size: 10px;&quot;&gt;WriteReg_W&lt;/font&gt;" style="text;html=1;align=center;verticalAlign=middle;resizable=0;points=[];autosize=1;strokeColor=none;fillColor=none;" parent="1" vertex="1">
          <mxGeometry x="1900" y="391" width="80" height="30" as="geometry" />
        </mxCell>
        <mxCell id="P1shMp356iEXxUVnIpec-113" value="&lt;font style=&quot;font-size: 10px;&quot;&gt;WriteReg_M&lt;/font&gt;" style="text;html=1;align=center;verticalAlign=middle;resizable=0;points=[];autosize=1;strokeColor=none;fillColor=none;" parent="1" vertex="1">
          <mxGeometry x="1655" y="396.25" width="80" height="30" as="geometry" />
        </mxCell>
        <mxCell id="P1shMp356iEXxUVnIpec-114" style="edgeStyle=orthogonalEdgeStyle;rounded=0;orthogonalLoop=1;jettySize=auto;html=1;strokeColor=#000000;fillColor=#647687;entryX=-0.035;entryY=0.303;entryDx=0;entryDy=0;entryPerimeter=0;" parent="1" target="nZXYA9FFozqnE7sLYy3P-16" edge="1">
          <mxGeometry relative="1" as="geometry">
            <mxPoint x="1540" y="520" as="targetPoint" />
            <mxPoint x="1540" y="420" as="sourcePoint" />
            <Array as="points" />
          </mxGeometry>
        </mxCell>
        <mxCell id="P1shMp356iEXxUVnIpec-115" style="edgeStyle=orthogonalEdgeStyle;rounded=0;orthogonalLoop=1;jettySize=auto;html=1;strokeColor=#000000;fillColor=#647687;entryX=-0.035;entryY=0.303;entryDx=0;entryDy=0;entryPerimeter=0;" parent="1" edge="1">
          <mxGeometry relative="1" as="geometry">
            <mxPoint x="1679.58" y="966" as="targetPoint" />
            <mxPoint x="1679.58" y="419" as="sourcePoint" />
            <Array as="points" />
          </mxGeometry>
        </mxCell>
        <mxCell id="P1shMp356iEXxUVnIpec-116" style="edgeStyle=orthogonalEdgeStyle;rounded=0;orthogonalLoop=1;jettySize=auto;html=1;strokeColor=#000000;fillColor=#647687;entryX=-0.035;entryY=0.303;entryDx=0;entryDy=0;entryPerimeter=0;" parent="1" edge="1">
          <mxGeometry relative="1" as="geometry">
            <mxPoint x="1939.58" y="973.25" as="targetPoint" />
            <mxPoint x="1940" y="450" as="sourcePoint" />
            <Array as="points" />
          </mxGeometry>
        </mxCell>
        <mxCell id="P1shMp356iEXxUVnIpec-118" style="edgeStyle=orthogonalEdgeStyle;rounded=0;orthogonalLoop=1;jettySize=auto;html=1;strokeColor=#3333FF;endArrow=classic;endFill=1;entryX=-0.007;entryY=0.292;entryDx=0;entryDy=0;entryPerimeter=0;" parent="1" edge="1">
          <mxGeometry relative="1" as="geometry">
            <mxPoint x="1565.4800000000005" y="973.3699999999999" as="targetPoint" />
            <mxPoint x="1565" y="54" as="sourcePoint" />
            <Array as="points">
              <mxPoint x="1566" y="84" />
            </Array>
          </mxGeometry>
        </mxCell>
        <mxCell id="P1shMp356iEXxUVnIpec-119" style="edgeStyle=orthogonalEdgeStyle;rounded=0;orthogonalLoop=1;jettySize=auto;html=1;strokeColor=#3333FF;endArrow=classic;endFill=1;" parent="1" edge="1">
          <mxGeometry relative="1" as="geometry">
            <mxPoint x="1580" y="970" as="targetPoint" />
            <mxPoint x="1579.04" y="114.5" as="sourcePoint" />
            <Array as="points">
              <mxPoint x="1580.04" y="144.5" />
            </Array>
          </mxGeometry>
        </mxCell>
        <mxCell id="P1shMp356iEXxUVnIpec-120" value="&lt;font color=&quot;#3333ff&quot; style=&quot;font-size: 10px;&quot;&gt;MemtoRegE&lt;/font&gt;" style="text;html=1;align=center;verticalAlign=middle;resizable=0;points=[];autosize=1;strokeColor=none;fillColor=none;rotation=90;" parent="1" vertex="1">
          <mxGeometry x="1534" y="914" width="80" height="30" as="geometry" />
        </mxCell>
        <mxCell id="P1shMp356iEXxUVnIpec-121" value="&lt;font color=&quot;#3333ff&quot; style=&quot;font-size: 10px;&quot;&gt;RegWriteE&lt;/font&gt;" style="text;html=1;align=center;verticalAlign=middle;resizable=0;points=[];autosize=1;strokeColor=none;fillColor=none;rotation=90;" parent="1" vertex="1">
          <mxGeometry x="1554.38" y="918" width="70" height="30" as="geometry" />
        </mxCell>
        <mxCell id="P1shMp356iEXxUVnIpec-122" value="&lt;font style=&quot;font-size: 10px;&quot; color=&quot;#000000&quot;&gt;WriteRegE&lt;/font&gt;" style="text;html=1;align=center;verticalAlign=middle;resizable=0;points=[];autosize=1;strokeColor=none;fillColor=none;rotation=90;" parent="1" vertex="1">
          <mxGeometry x="1516" y="918" width="70" height="30" as="geometry" />
        </mxCell>
        <mxCell id="P1shMp356iEXxUVnIpec-123" value="WriteRegM" style="text;html=1;align=center;verticalAlign=middle;resizable=0;points=[];autosize=1;strokeColor=none;fillColor=none;rotation=90;" parent="1" vertex="1">
          <mxGeometry x="1655" y="914" width="80" height="30" as="geometry" />
        </mxCell>
        <mxCell id="P1shMp356iEXxUVnIpec-124" value="&lt;font style=&quot;font-size: 10px;&quot;&gt;WriteReg_W&lt;/font&gt;" style="text;html=1;align=center;verticalAlign=middle;resizable=0;points=[];autosize=1;strokeColor=none;fillColor=none;rotation=90;" parent="1" vertex="1">
          <mxGeometry x="1910" y="914" width="80" height="30" as="geometry" />
        </mxCell>
        <mxCell id="P1shMp356iEXxUVnIpec-125" style="edgeStyle=orthogonalEdgeStyle;rounded=0;orthogonalLoop=1;jettySize=auto;html=1;strokeColor=#3333FF;endArrow=classic;endFill=1;entryX=-0.007;entryY=0.292;entryDx=0;entryDy=0;entryPerimeter=0;" parent="1" edge="1">
          <mxGeometry relative="1" as="geometry">
            <mxPoint x="1710.4800000000005" y="973.8699999999999" as="targetPoint" />
            <mxPoint x="1710" y="54.5" as="sourcePoint" />
            <Array as="points">
              <mxPoint x="1711" y="84.5" />
            </Array>
          </mxGeometry>
        </mxCell>
        <mxCell id="P1shMp356iEXxUVnIpec-126" style="edgeStyle=orthogonalEdgeStyle;rounded=0;orthogonalLoop=1;jettySize=auto;html=1;strokeColor=#3333FF;endArrow=classic;endFill=1;" parent="1" edge="1">
          <mxGeometry relative="1" as="geometry">
            <mxPoint x="1730.97" y="970" as="targetPoint" />
            <mxPoint x="1730.01" y="114.5" as="sourcePoint" />
            <Array as="points">
              <mxPoint x="1731.01" y="144.5" />
            </Array>
          </mxGeometry>
        </mxCell>
        <mxCell id="P1shMp356iEXxUVnIpec-127" value="&lt;font color=&quot;#3333ff&quot; style=&quot;font-size: 10px;&quot;&gt;RegWriteM&lt;/font&gt;" style="text;html=1;align=center;verticalAlign=middle;resizable=0;points=[];autosize=1;strokeColor=none;fillColor=none;rotation=90;" parent="1" vertex="1">
          <mxGeometry x="1707" y="918" width="70" height="30" as="geometry" />
        </mxCell>
        <mxCell id="P1shMp356iEXxUVnIpec-128" value="&lt;font color=&quot;#3333ff&quot; style=&quot;font-size: 10px;&quot;&gt;MemtoRegM&lt;/font&gt;" style="text;html=1;align=center;verticalAlign=middle;resizable=0;points=[];autosize=1;strokeColor=none;fillColor=none;rotation=90;" parent="1" vertex="1">
          <mxGeometry x="1680" y="914" width="80" height="30" as="geometry" />
        </mxCell>
        <mxCell id="P1shMp356iEXxUVnIpec-129" style="edgeStyle=orthogonalEdgeStyle;rounded=0;orthogonalLoop=1;jettySize=auto;html=1;strokeColor=#3333FF;endArrow=classic;endFill=1;" parent="1" edge="1">
          <mxGeometry relative="1" as="geometry">
            <mxPoint x="2020.96" y="970" as="targetPoint" />
            <mxPoint x="2020" y="114.5" as="sourcePoint" />
            <Array as="points">
              <mxPoint x="2021" y="144.5" />
            </Array>
          </mxGeometry>
        </mxCell>
        <mxCell id="P1shMp356iEXxUVnIpec-130" value="&lt;font color=&quot;#3333ff&quot; style=&quot;font-size: 10px;&quot;&gt;RegWriteW&lt;/font&gt;" style="text;html=1;align=center;verticalAlign=middle;resizable=0;points=[];autosize=1;strokeColor=none;fillColor=none;rotation=90;" parent="1" vertex="1">
          <mxGeometry x="2000" y="918" width="70" height="30" as="geometry" />
        </mxCell>
        <mxCell id="P1shMp356iEXxUVnIpec-131" value="" style="edgeStyle=orthogonalEdgeStyle;rounded=0;orthogonalLoop=1;jettySize=auto;html=1;strokeColor=#000000;entryX=-0.006;entryY=0.796;entryDx=0;entryDy=0;entryPerimeter=0;" parent="1" target="Ugpq3g7S5GpDSBXR10l6-2" edge="1">
          <mxGeometry relative="1" as="geometry">
            <mxPoint x="1305" y="340" as="sourcePoint" />
            <mxPoint x="1620" y="400" as="targetPoint" />
            <Array as="points">
              <mxPoint x="1305" y="400" />
              <mxPoint x="1750" y="400" />
              <mxPoint x="1750" y="364" />
            </Array>
          </mxGeometry>
        </mxCell>
        <mxCell id="P1shMp356iEXxUVnIpec-132" value="&lt;font style=&quot;font-size: 10px;&quot; color=&quot;#000000&quot;&gt;WriteDataE&lt;/font&gt;" style="text;html=1;align=center;verticalAlign=middle;resizable=0;points=[];autosize=1;strokeColor=none;fillColor=none;" parent="1" vertex="1">
          <mxGeometry x="1554.38" y="372.5" width="70" height="30" as="geometry" />
        </mxCell>
        <mxCell id="P1shMp356iEXxUVnIpec-133" value="&lt;font style=&quot;font-size: 10px;&quot; color=&quot;#000000&quot;&gt;WriteDataM&lt;/font&gt;" style="text;html=1;align=center;verticalAlign=middle;resizable=0;points=[];autosize=1;strokeColor=none;fillColor=none;" parent="1" vertex="1">
          <mxGeometry x="1655" y="374.5" width="80" height="30" as="geometry" />
        </mxCell>
        <mxCell id="P1shMp356iEXxUVnIpec-134" value="Addr" style="text;html=1;align=center;verticalAlign=middle;resizable=0;points=[];autosize=1;strokeColor=none;fillColor=none;" parent="1" vertex="1">
          <mxGeometry x="1770" y="267.5" width="50" height="30" as="geometry" />
        </mxCell>
        <mxCell id="P1shMp356iEXxUVnIpec-135" value="WD" style="text;html=1;align=center;verticalAlign=middle;resizable=0;points=[];autosize=1;strokeColor=none;fillColor=none;" parent="1" vertex="1">
          <mxGeometry x="1775" y="348.44" width="40" height="30" as="geometry" />
        </mxCell>
        <mxCell id="nZXYA9FFozqnE7sLYy3P-13" value="&lt;font style=&quot;font-size: 10px;&quot;&gt;Memory&lt;/font&gt;" style="rounded=0;whiteSpace=wrap;html=1;strokeColor=#d79b00;fillColor=#ffe6cc;" parent="1" vertex="1">
          <mxGeometry x="1620" y="-100" width="40" height="912" as="geometry" />
        </mxCell>
        <mxCell id="P1shMp356iEXxUVnIpec-141" value="&lt;font style=&quot;font-size: 10px;&quot; color=&quot;#000000&quot;&gt;ResultW&lt;/font&gt;" style="text;html=1;align=center;verticalAlign=middle;resizable=0;points=[];autosize=1;strokeColor=none;fillColor=none;" parent="1" vertex="1">
          <mxGeometry x="2196" y="500.5" width="60" height="30" as="geometry" />
        </mxCell>
        <mxCell id="P1shMp356iEXxUVnIpec-143" style="edgeStyle=orthogonalEdgeStyle;rounded=0;orthogonalLoop=1;jettySize=auto;html=1;strokeColor=#3333FF;fillColor=#647687;entryX=0.202;entryY=0.752;entryDx=0;entryDy=0;entryPerimeter=0;" parent="1" target="gvxj1XPc0aMhFtpe2DSs-10" edge="1">
          <mxGeometry relative="1" as="geometry">
            <mxPoint x="400" y="-70" as="sourcePoint" />
            <mxPoint x="410" y="790" as="targetPoint" />
            <Array as="points">
              <mxPoint x="400" y="800" />
              <mxPoint x="403" y="800" />
            </Array>
          </mxGeometry>
        </mxCell>
        <mxCell id="P1shMp356iEXxUVnIpec-146" value="&lt;font color=&quot;#3333ff&quot;&gt;Link_W&lt;/font&gt;" style="text;html=1;align=center;verticalAlign=middle;resizable=0;points=[];autosize=1;strokeColor=none;fillColor=none;" parent="1" vertex="1">
          <mxGeometry x="465" y="229.5" width="60" height="30" as="geometry" />
        </mxCell>
        <mxCell id="P1shMp356iEXxUVnIpec-147" value="&lt;font color=&quot;#3333ff&quot;&gt;Link_E&lt;/font&gt;" style="text;html=1;align=center;verticalAlign=middle;resizable=0;points=[];autosize=1;strokeColor=none;fillColor=none;" parent="1" vertex="1">
          <mxGeometry x="935" y="-33" width="60" height="30" as="geometry" />
        </mxCell>
        <mxCell id="P1shMp356iEXxUVnIpec-148" value="&lt;font color=&quot;#3333ff&quot;&gt;Link_M&lt;/font&gt;" style="text;html=1;align=center;verticalAlign=middle;resizable=0;points=[];autosize=1;strokeColor=none;fillColor=none;" parent="1" vertex="1">
          <mxGeometry x="1656" y="-33" width="60" height="30" as="geometry" />
        </mxCell>
        <mxCell id="P1shMp356iEXxUVnIpec-149" value="&lt;font color=&quot;#3333ff&quot;&gt;Link_W&lt;/font&gt;" style="text;html=1;align=center;verticalAlign=middle;resizable=0;points=[];autosize=1;strokeColor=none;fillColor=none;" parent="1" vertex="1">
          <mxGeometry x="1908" y="-33" width="60" height="30" as="geometry" />
        </mxCell>
        <mxCell id="P1shMp356iEXxUVnIpec-150" value="&lt;font style=&quot;font-size: 10px;&quot; color=&quot;#3333ff&quot;&gt;ByteControl_M&lt;/font&gt;" style="text;html=1;align=center;verticalAlign=middle;resizable=0;points=[];autosize=1;strokeColor=none;fillColor=none;" parent="1" vertex="1">
          <mxGeometry x="1650" y="16.5" width="90" height="30" as="geometry" />
        </mxCell>
        <mxCell id="P1shMp356iEXxUVnIpec-151" value="&lt;font style=&quot;font-size: 10px;&quot; color=&quot;#3333ff&quot;&gt;MemtoReg_M&lt;/font&gt;" style="text;html=1;align=center;verticalAlign=middle;resizable=0;points=[];autosize=1;strokeColor=none;fillColor=none;" parent="1" vertex="1">
          <mxGeometry x="1650" y="32.5" width="90" height="30" as="geometry" />
        </mxCell>
        <mxCell id="P1shMp356iEXxUVnIpec-154" value="&lt;font style=&quot;font-size: 10px;&quot; color=&quot;#3333ff&quot;&gt;MemWrite_M&lt;/font&gt;" style="text;html=1;align=center;verticalAlign=middle;resizable=0;points=[];autosize=1;strokeColor=none;fillColor=none;" parent="1" vertex="1">
          <mxGeometry x="1650" y="44.5" width="80" height="30" as="geometry" />
        </mxCell>
        <mxCell id="P1shMp356iEXxUVnIpec-155" value="&lt;font style=&quot;font-size: 10px;&quot; color=&quot;#3333ff&quot;&gt;ByteControl_W&lt;/font&gt;" style="text;html=1;align=center;verticalAlign=middle;resizable=0;points=[];autosize=1;strokeColor=none;fillColor=none;" parent="1" vertex="1">
          <mxGeometry x="1905" y="14.5" width="90" height="30" as="geometry" />
        </mxCell>
        <mxCell id="P1shMp356iEXxUVnIpec-156" value="&lt;font style=&quot;font-size: 10px;&quot; color=&quot;#3333ff&quot;&gt;MemtoReg_W&lt;/font&gt;" style="text;html=1;align=center;verticalAlign=middle;resizable=0;points=[];autosize=1;strokeColor=none;fillColor=none;" parent="1" vertex="1">
          <mxGeometry x="1905" y="32.5" width="90" height="30" as="geometry" />
        </mxCell>
        <mxCell id="P1shMp356iEXxUVnIpec-159" value="&lt;font style=&quot;font-size: 10px;&quot; color=&quot;#3333ff&quot;&gt;RegWrite_M&lt;/font&gt;" style="text;html=1;align=center;verticalAlign=middle;resizable=0;points=[];autosize=1;strokeColor=none;fillColor=none;" parent="1" vertex="1">
          <mxGeometry x="1651" y="89.5" width="80" height="30" as="geometry" />
        </mxCell>
        <mxCell id="P1shMp356iEXxUVnIpec-160" value="&lt;font style=&quot;font-size: 10px;&quot; color=&quot;#3333ff&quot;&gt;RegWrite_W&lt;/font&gt;" style="text;html=1;align=center;verticalAlign=middle;resizable=0;points=[];autosize=1;strokeColor=none;fillColor=none;" parent="1" vertex="1">
          <mxGeometry x="1908" y="89.5" width="80" height="30" as="geometry" />
        </mxCell>
        <mxCell id="P1shMp356iEXxUVnIpec-161" value="&lt;font color=&quot;#3333ff&quot;&gt;Jr_E&lt;/font&gt;" style="text;html=1;align=center;verticalAlign=middle;resizable=0;points=[];autosize=1;strokeColor=none;fillColor=none;" parent="1" vertex="1">
          <mxGeometry x="931" y="-73" width="50" height="30" as="geometry" />
        </mxCell>
        <mxCell id="P1shMp356iEXxUVnIpec-162" value="&lt;font color=&quot;#3333ff&quot;&gt;J_E&lt;/font&gt;" style="text;html=1;align=center;verticalAlign=middle;resizable=0;points=[];autosize=1;strokeColor=none;fillColor=none;" parent="1" vertex="1">
          <mxGeometry x="935" y="-54" width="40" height="30" as="geometry" />
        </mxCell>
        <mxCell id="P1shMp356iEXxUVnIpec-163" value="&lt;font color=&quot;#3333ff&quot;&gt;Jr_M&lt;/font&gt;" style="text;html=1;align=center;verticalAlign=middle;resizable=0;points=[];autosize=1;strokeColor=none;fillColor=none;" parent="1" vertex="1">
          <mxGeometry x="1655" y="-73" width="50" height="30" as="geometry" />
        </mxCell>
        <mxCell id="P1shMp356iEXxUVnIpec-164" value="&lt;font color=&quot;#3333ff&quot;&gt;J_M&lt;/font&gt;" style="text;html=1;align=center;verticalAlign=middle;resizable=0;points=[];autosize=1;strokeColor=none;fillColor=none;" parent="1" vertex="1">
          <mxGeometry x="1654" y="-53" width="50" height="30" as="geometry" />
        </mxCell>
        <mxCell id="P1shMp356iEXxUVnIpec-165" value="&lt;font color=&quot;#3333ff&quot;&gt;Jr_W&lt;/font&gt;" style="text;html=1;align=center;verticalAlign=middle;resizable=0;points=[];autosize=1;strokeColor=none;fillColor=none;" parent="1" vertex="1">
          <mxGeometry x="1905" y="-74" width="50" height="30" as="geometry" />
        </mxCell>
        <mxCell id="P1shMp356iEXxUVnIpec-166" value="&lt;font color=&quot;#3333ff&quot;&gt;J_W&lt;/font&gt;" style="text;html=1;align=center;verticalAlign=middle;resizable=0;points=[];autosize=1;strokeColor=none;fillColor=none;" parent="1" vertex="1">
          <mxGeometry x="1904" y="-54" width="50" height="30" as="geometry" />
        </mxCell>
        <mxCell id="P1shMp356iEXxUVnIpec-167" style="edgeStyle=orthogonalEdgeStyle;rounded=0;orthogonalLoop=1;jettySize=auto;html=1;strokeColor=#3333FF;fillColor=#647687;" parent="1" edge="1">
          <mxGeometry relative="1" as="geometry">
            <mxPoint x="-307.58" y="183.5" as="sourcePoint" />
            <mxPoint x="-307.58" y="276.5" as="targetPoint" />
            <Array as="points">
              <mxPoint x="-307.58" y="203.5" />
              <mxPoint x="-307.58" y="203.5" />
            </Array>
          </mxGeometry>
        </mxCell>
        <mxCell id="P1shMp356iEXxUVnIpec-168" style="edgeStyle=orthogonalEdgeStyle;rounded=0;orthogonalLoop=1;jettySize=auto;html=1;strokeColor=#3333FF;fillColor=#647687;" parent="1" edge="1">
          <mxGeometry relative="1" as="geometry">
            <mxPoint x="-295" y="187.5" as="sourcePoint" />
            <mxPoint x="-295" y="280.5" as="targetPoint" />
            <Array as="points">
              <mxPoint x="-295" y="207.5" />
              <mxPoint x="-295" y="207.5" />
            </Array>
          </mxGeometry>
        </mxCell>
        <mxCell id="P1shMp356iEXxUVnIpec-169" value="&lt;font color=&quot;#3333ff&quot;&gt;Jr_D&lt;/font&gt;" style="text;html=1;align=center;verticalAlign=middle;resizable=0;points=[];autosize=1;strokeColor=none;fillColor=none;" parent="1" vertex="1">
          <mxGeometry x="-327.18" y="153.5" width="50" height="30" as="geometry" />
        </mxCell>
        <mxCell id="P1shMp356iEXxUVnIpec-170" value="&lt;font color=&quot;#3333ff&quot;&gt;J_D&lt;/font&gt;" style="text;html=1;align=center;verticalAlign=middle;resizable=0;points=[];autosize=1;strokeColor=none;fillColor=none;" parent="1" vertex="1">
          <mxGeometry x="-300" y="184.5" width="40" height="30" as="geometry" />
        </mxCell>
        <mxCell id="2_amCVkpkiCOXjMuvrZo-2" value="&lt;font color=&quot;#3333ff&quot; style=&quot;font-size: 8px;&quot;&gt;2&lt;/font&gt;" style="text;html=1;align=center;verticalAlign=middle;resizable=0;points=[];autosize=1;strokeColor=none;fillColor=none;" parent="1" vertex="1">
          <mxGeometry x="1000" y="19.509999999999998" width="30" height="30" as="geometry" />
        </mxCell>
        <mxCell id="2_amCVkpkiCOXjMuvrZo-3" value="&lt;font color=&quot;#3333ff&quot; style=&quot;font-size: 8px;&quot;&gt;2&lt;/font&gt;" style="text;html=1;align=center;verticalAlign=middle;resizable=0;points=[];autosize=1;strokeColor=none;fillColor=none;" parent="1" vertex="1">
          <mxGeometry x="1000" y="59.5" width="30" height="30" as="geometry" />
        </mxCell>
        <mxCell id="2_amCVkpkiCOXjMuvrZo-4" value="&lt;font color=&quot;#3333ff&quot; style=&quot;font-size: 8px;&quot;&gt;2&lt;/font&gt;" style="text;html=1;align=center;verticalAlign=middle;resizable=0;points=[];autosize=1;strokeColor=none;fillColor=none;" parent="1" vertex="1">
          <mxGeometry x="1731" y="14.5" width="30" height="30" as="geometry" />
        </mxCell>
        <mxCell id="2_amCVkpkiCOXjMuvrZo-5" value="&lt;font color=&quot;#3333ff&quot; style=&quot;font-size: 8px;&quot;&gt;2&lt;/font&gt;" style="text;html=1;align=center;verticalAlign=middle;resizable=0;points=[];autosize=1;strokeColor=none;fillColor=none;" parent="1" vertex="1">
          <mxGeometry x="1985" y="14.5" width="30" height="30" as="geometry" />
        </mxCell>
        <mxCell id="2_amCVkpkiCOXjMuvrZo-6" value="&lt;font color=&quot;#3333ff&quot; style=&quot;font-size: 10px;&quot;&gt;FlushE&lt;/font&gt;" style="text;html=1;align=center;verticalAlign=middle;resizable=0;points=[];autosize=1;strokeColor=none;fillColor=none;rotation=90;" parent="1" vertex="1">
          <mxGeometry x="905" y="936" width="50" height="30" as="geometry" />
        </mxCell>
        <mxCell id="2_amCVkpkiCOXjMuvrZo-7" value="&lt;font style=&quot;font-size: 8px;&quot;&gt;CLR&lt;/font&gt;" style="text;html=1;align=center;verticalAlign=middle;resizable=0;points=[];autosize=1;strokeColor=none;fillColor=none;" parent="1" vertex="1">
          <mxGeometry x="899" y="772" width="40" height="30" as="geometry" />
        </mxCell>
        <mxCell id="2_amCVkpkiCOXjMuvrZo-9" value="&lt;font style=&quot;font-size: 10px;&quot;&gt;ALU_result_W&lt;/font&gt;" style="text;html=1;align=center;verticalAlign=middle;resizable=0;points=[];autosize=1;strokeColor=none;fillColor=none;" parent="1" vertex="1">
          <mxGeometry x="1893" y="177.5" width="90" height="30" as="geometry" />
        </mxCell>
        <mxCell id="gvxj1XPc0aMhFtpe2DSs-1" style="edgeStyle=orthogonalEdgeStyle;rounded=0;orthogonalLoop=1;jettySize=auto;html=1;strokeColor=#000000;fillColor=#647687;" parent="1" edge="1">
          <mxGeometry relative="1" as="geometry">
            <mxPoint x="530" y="291" as="sourcePoint" />
            <mxPoint x="1490" y="271" as="targetPoint" />
            <Array as="points">
              <mxPoint x="1490" y="238" />
            </Array>
          </mxGeometry>
        </mxCell>
        <mxCell id="gvxj1XPc0aMhFtpe2DSs-3" value="&lt;span style=&quot;font-size: 10px; background-color: rgb(255, 255, 255);&quot;&gt;shamt_D&lt;/span&gt;" style="text;html=1;align=center;verticalAlign=middle;resizable=0;points=[];autosize=1;strokeColor=none;fillColor=none;" parent="1" vertex="1">
          <mxGeometry x="830" y="214.5" width="60" height="30" as="geometry" />
        </mxCell>
        <mxCell id="gvxj1XPc0aMhFtpe2DSs-4" value="&lt;span style=&quot;font-size: 10px; background-color: rgb(255, 255, 255);&quot;&gt;shamt_E&lt;/span&gt;" style="text;html=1;align=center;verticalAlign=middle;resizable=0;points=[];autosize=1;strokeColor=none;fillColor=none;" parent="1" vertex="1">
          <mxGeometry x="928" y="214.5" width="60" height="30" as="geometry" />
        </mxCell>
        <mxCell id="nZXYA9FFozqnE7sLYy3P-10" value="&lt;font style=&quot;font-size: 10px;&quot;&gt;Excute&lt;/font&gt;" style="rounded=0;whiteSpace=wrap;html=1;strokeColor=#6c8ebf;fillColor=#dae8fc;" parent="1" vertex="1">
          <mxGeometry x="890" y="-100" width="40" height="902" as="geometry" />
        </mxCell>
        <mxCell id="gvxj1XPc0aMhFtpe2DSs-5" value="" style="shape=waypoint;sketch=0;size=6;pointerEvents=1;points=[];resizable=0;rotatable=0;perimeter=centerPerimeter;snapToPoint=1;strokeWidth=2;fillStyle=auto;fontColor=#3333FF;strokeColor=#3333FF;" parent="1" vertex="1">
          <mxGeometry x="150" y="796" width="20" height="20" as="geometry" />
        </mxCell>
        <mxCell id="gvxj1XPc0aMhFtpe2DSs-7" style="edgeStyle=orthogonalEdgeStyle;rounded=0;orthogonalLoop=1;jettySize=auto;html=1;strokeColor=#3333FF;fillColor=#647687;entryX=0.204;entryY=0.464;entryDx=0;entryDy=0;entryPerimeter=0;" parent="1" target="gvxj1XPc0aMhFtpe2DSs-10" edge="1">
          <mxGeometry relative="1" as="geometry">
            <mxPoint x="460" y="150" as="sourcePoint" />
            <mxPoint x="530" y="790" as="targetPoint" />
            <Array as="points">
              <mxPoint x="430" y="150" />
              <mxPoint x="430" y="770" />
              <mxPoint x="420" y="770" />
            </Array>
          </mxGeometry>
        </mxCell>
        <mxCell id="gvxj1XPc0aMhFtpe2DSs-8" style="edgeStyle=orthogonalEdgeStyle;rounded=0;orthogonalLoop=1;jettySize=auto;html=1;strokeColor=#3333FF;fillColor=#647687;" parent="1" edge="1">
          <mxGeometry relative="1" as="geometry">
            <mxPoint x="450" y="160" as="sourcePoint" />
            <mxPoint x="470" y="780" as="targetPoint" />
            <Array as="points">
              <mxPoint x="450" y="740" />
              <mxPoint x="470" y="740" />
            </Array>
          </mxGeometry>
        </mxCell>
        <mxCell id="gvxj1XPc0aMhFtpe2DSs-10" value="" style="verticalLabelPosition=bottom;shadow=0;dashed=0;align=center;html=1;verticalAlign=top;shape=mxgraph.electrical.logic_gates.logic_gate;operation=or;rotation=90;" parent="1" vertex="1">
          <mxGeometry x="385.5" y="808" width="65" height="60" as="geometry" />
        </mxCell>
        <mxCell id="gvxj1XPc0aMhFtpe2DSs-11" style="edgeStyle=orthogonalEdgeStyle;rounded=0;orthogonalLoop=1;jettySize=auto;html=1;exitX=1;exitY=0.5;exitDx=0;exitDy=0;exitPerimeter=0;strokeColor=#3333FF;" parent="1" source="gvxj1XPc0aMhFtpe2DSs-10" target="P1shMp356iEXxUVnIpec-83" edge="1">
          <mxGeometry relative="1" as="geometry">
            <mxPoint x="369.55" y="804" as="targetPoint" />
            <mxPoint x="369.55" y="964" as="sourcePoint" />
            <Array as="points">
              <mxPoint x="370" y="904" />
            </Array>
          </mxGeometry>
        </mxCell>
        <mxCell id="gvxj1XPc0aMhFtpe2DSs-12" value="&lt;font style=&quot;font-size: 10px;&quot; color=&quot;#3333ff&quot;&gt;Branch&lt;br&gt;_control_D&lt;/font&gt;" style="text;html=1;align=center;verticalAlign=middle;resizable=0;points=[];autosize=1;strokeColor=none;fillColor=none;" parent="1" vertex="1">
          <mxGeometry x="-379.9999999999999" y="119.5" width="70" height="40" as="geometry" />
        </mxCell>
        <mxCell id="gvxj1XPc0aMhFtpe2DSs-13" value="BranchResult_D" style="text;html=1;align=center;verticalAlign=middle;resizable=0;points=[];autosize=1;strokeColor=none;fillColor=none;" parent="1" vertex="1">
          <mxGeometry x="-437.18" y="294.5" width="110" height="30" as="geometry" />
        </mxCell>
        <mxCell id="gvxj1XPc0aMhFtpe2DSs-14" value="J_D" style="text;html=1;align=center;verticalAlign=middle;resizable=0;points=[];autosize=1;strokeColor=none;fillColor=none;" parent="1" vertex="1">
          <mxGeometry x="-395" y="336.37" width="40" height="30" as="geometry" />
        </mxCell>
        <mxCell id="gvxj1XPc0aMhFtpe2DSs-15" value="Jr_D" style="text;html=1;align=center;verticalAlign=middle;resizable=0;points=[];autosize=1;strokeColor=none;fillColor=none;" parent="1" vertex="1">
          <mxGeometry x="-390" y="372.5" width="50" height="30" as="geometry" />
        </mxCell>
        <mxCell id="gvxj1XPc0aMhFtpe2DSs-16" value="PC_plus_4_F" style="text;html=1;align=center;verticalAlign=middle;resizable=0;points=[];autosize=1;strokeColor=none;fillColor=none;" parent="1" vertex="1">
          <mxGeometry x="-440" y="264" width="100" height="30" as="geometry" />
        </mxCell>
        <mxCell id="pxD3CVF10N9NgYZiStoD-1" value="" style="shape=trapezoid;perimeter=trapezoidPerimeter;whiteSpace=wrap;html=1;fixedSize=1;rotation=90;strokeColor=#000000;fillColor=#647687;fontColor=#ffffff;" parent="1" vertex="1">
          <mxGeometry x="-490" y="366.37" width="70" height="21.25" as="geometry" />
        </mxCell>
        <mxCell id="pxD3CVF10N9NgYZiStoD-2" style="edgeStyle=orthogonalEdgeStyle;rounded=0;orthogonalLoop=1;jettySize=auto;html=1;strokeColor=#000000;fillColor=#647687;exitX=0.5;exitY=0;exitDx=0;exitDy=0;entryX=0.914;entryY=1.073;entryDx=0;entryDy=0;entryPerimeter=0;" parent="1" source="pxD3CVF10N9NgYZiStoD-1" target="7l68HAIhDoD8jShRCUK5-4" edge="1">
          <mxGeometry relative="1" as="geometry">
            <mxPoint x="-325" y="448.53" as="sourcePoint" />
            <Array as="points">
              <mxPoint x="-444" y="374" />
            </Array>
            <mxPoint x="-345" y="374" as="targetPoint" />
          </mxGeometry>
        </mxCell>
        <mxCell id="pxD3CVF10N9NgYZiStoD-3" style="edgeStyle=orthogonalEdgeStyle;rounded=0;orthogonalLoop=1;jettySize=auto;html=1;strokeColor=#000000;fillColor=#647687;entryX=0.5;entryY=1;entryDx=0;entryDy=0;" parent="1" target="pxD3CVF10N9NgYZiStoD-1" edge="1">
          <mxGeometry relative="1" as="geometry">
            <mxPoint x="-51" y="381.5" as="targetPoint" />
            <mxPoint x="1070" y="840" as="sourcePoint" />
            <Array as="points">
              <mxPoint x="1070" y="920" />
              <mxPoint x="-540" y="920" />
              <mxPoint x="-540" y="377" />
            </Array>
          </mxGeometry>
        </mxCell>
        <mxCell id="pxD3CVF10N9NgYZiStoD-4" style="edgeStyle=orthogonalEdgeStyle;rounded=0;orthogonalLoop=1;jettySize=auto;html=1;strokeColor=#000000;fillColor=#647687;entryX=0.75;entryY=1;entryDx=0;entryDy=0;" parent="1" target="pxD3CVF10N9NgYZiStoD-1" edge="1">
          <mxGeometry relative="1" as="geometry">
            <mxPoint x="-80" y="395" as="targetPoint" />
            <mxPoint x="1110" y="530" as="sourcePoint" />
            <Array as="points">
              <mxPoint x="1110" y="910" />
              <mxPoint x="-500" y="910" />
              <mxPoint x="-500" y="394" />
            </Array>
          </mxGeometry>
        </mxCell>
        <mxCell id="pxD3CVF10N9NgYZiStoD-5" style="edgeStyle=orthogonalEdgeStyle;rounded=0;orthogonalLoop=1;jettySize=auto;html=1;strokeColor=#3333FF;exitX=0;exitY=0.987;exitDx=0;exitDy=0;exitPerimeter=0;entryX=1;entryY=0.5;entryDx=0;entryDy=0;" parent="1" source="nZXYA9FFozqnE7sLYy3P-16" target="pxD3CVF10N9NgYZiStoD-1" edge="1">
          <mxGeometry relative="1" as="geometry">
            <mxPoint x="-350" y="420" as="targetPoint" />
            <mxPoint x="-20" y="930" as="sourcePoint" />
            <Array as="points">
              <mxPoint x="-40" y="880" />
              <mxPoint x="-455" y="880" />
            </Array>
          </mxGeometry>
        </mxCell>
        <mxCell id="pxD3CVF10N9NgYZiStoD-6" value="&lt;font color=&quot;#3333ff&quot; style=&quot;font-size: 10px;&quot;&gt;ForwardRs_D&lt;/font&gt;" style="text;html=1;align=center;verticalAlign=middle;resizable=0;points=[];autosize=1;strokeColor=none;fillColor=none;rotation=90;" parent="1" vertex="1">
          <mxGeometry x="-65" y="925" width="90" height="30" as="geometry" />
        </mxCell>
        <mxCell id="ttiZmPJAbG6uYGPEgqJ0-33" value="" style="shape=trapezoid;perimeter=trapezoidPerimeter;whiteSpace=wrap;html=1;fixedSize=1;rotation=-180;strokeColor=#000000;fillColor=#647687;fontColor=#ffffff;" parent="1" vertex="1">
          <mxGeometry x="448" y="781" width="107" height="15" as="geometry" />
        </mxCell>
        <mxCell id="ttiZmPJAbG6uYGPEgqJ0-34" value="&lt;font style=&quot;font-size: 8px;&quot;&gt;0&lt;/font&gt;" style="text;html=1;align=center;verticalAlign=middle;resizable=0;points=[];autosize=1;strokeColor=none;fillColor=none;" parent="1" vertex="1">
          <mxGeometry x="455.5" y="772" width="30" height="30" as="geometry" />
        </mxCell>
        <mxCell id="ttiZmPJAbG6uYGPEgqJ0-35" value="&lt;font style=&quot;font-size: 8px;&quot;&gt;1&lt;/font&gt;" style="text;html=1;align=center;verticalAlign=middle;resizable=0;points=[];autosize=1;strokeColor=none;fillColor=none;" parent="1" vertex="1">
          <mxGeometry x="485" y="772" width="30" height="30" as="geometry" />
        </mxCell>
        <mxCell id="ttiZmPJAbG6uYGPEgqJ0-36" value="&lt;font style=&quot;font-size: 8px;&quot;&gt;2&lt;/font&gt;" style="text;html=1;align=center;verticalAlign=middle;resizable=0;points=[];autosize=1;strokeColor=none;fillColor=none;" parent="1" vertex="1">
          <mxGeometry x="510" y="772" width="30" height="30" as="geometry" />
        </mxCell>
        <mxCell id="ttiZmPJAbG6uYGPEgqJ0-37" style="edgeStyle=orthogonalEdgeStyle;rounded=0;orthogonalLoop=1;jettySize=auto;html=1;strokeColor=#3333FF;fillColor=#647687;" parent="1" edge="1">
          <mxGeometry relative="1" as="geometry">
            <mxPoint x="500" y="740" as="sourcePoint" />
            <mxPoint x="500" y="781" as="targetPoint" />
            <Array as="points">
              <mxPoint x="500" y="730" />
              <mxPoint x="500" y="730" />
            </Array>
          </mxGeometry>
        </mxCell>
        <mxCell id="ttiZmPJAbG6uYGPEgqJ0-38" style="edgeStyle=orthogonalEdgeStyle;rounded=0;orthogonalLoop=1;jettySize=auto;html=1;strokeColor=#3333FF;fillColor=#647687;" parent="1" edge="1">
          <mxGeometry relative="1" as="geometry">
            <mxPoint x="525" y="740" as="sourcePoint" />
            <mxPoint x="525" y="781" as="targetPoint" />
            <Array as="points">
              <mxPoint x="525" y="730" />
              <mxPoint x="525" y="730" />
            </Array>
          </mxGeometry>
        </mxCell>
        <mxCell id="ttiZmPJAbG6uYGPEgqJ0-39" value="&lt;font style=&quot;font-size: 8px;&quot;&gt;Jr_E&lt;/font&gt;" style="text;html=1;align=center;verticalAlign=middle;resizable=0;points=[];autosize=1;strokeColor=none;fillColor=none;" parent="1" vertex="1">
          <mxGeometry x="480" y="704.5" width="40" height="30" as="geometry" />
        </mxCell>
        <mxCell id="ttiZmPJAbG6uYGPEgqJ0-40" value="&lt;font style=&quot;font-size: 8px;&quot;&gt;Jr_M&lt;/font&gt;" style="text;html=1;align=center;verticalAlign=middle;resizable=0;points=[];autosize=1;strokeColor=none;fillColor=none;" parent="1" vertex="1">
          <mxGeometry x="505" y="704.5" width="40" height="30" as="geometry" />
        </mxCell>
        <mxCell id="ttiZmPJAbG6uYGPEgqJ0-41" style="edgeStyle=orthogonalEdgeStyle;rounded=0;orthogonalLoop=1;jettySize=auto;html=1;strokeColor=#3333FF;fillColor=#647687;exitX=-0.002;exitY=0.718;exitDx=0;exitDy=0;exitPerimeter=0;" parent="1" source="nZXYA9FFozqnE7sLYy3P-16" edge="1">
          <mxGeometry relative="1" as="geometry">
            <mxPoint x="590" y="790" as="sourcePoint" />
            <mxPoint x="544.3579335793361" y="789.4915498154983" as="targetPoint" />
            <Array as="points">
              <mxPoint x="580" y="970" />
              <mxPoint x="580" y="790" />
            </Array>
          </mxGeometry>
        </mxCell>
        <mxCell id="ttiZmPJAbG6uYGPEgqJ0-42" value="{LwStall_Jr,JrStall&lt;span style=&quot;font-size: 8px;&quot;&gt;}&lt;/span&gt;" style="text;html=1;align=center;verticalAlign=middle;resizable=0;points=[];autosize=1;strokeColor=none;fillColor=none;" parent="1" vertex="1">
          <mxGeometry x="570" y="804" width="120" height="30" as="geometry" />
        </mxCell>
        <mxCell id="YMpywW8aHW3HMsSgRhSE-1" value="Branch Predictor" style="rounded=1;whiteSpace=wrap;html=1;strokeColor=#000000;fillColor=#647687;fontColor=#ffffff;" parent="1" vertex="1">
          <mxGeometry x="-150" y="110" width="120" height="97.5" as="geometry" />
        </mxCell>
        <mxCell id="YMpywW8aHW3HMsSgRhSE-2" value="" style="shape=trapezoid;perimeter=trapezoidPerimeter;whiteSpace=wrap;html=1;fixedSize=1;rotation=90;strokeColor=#000000;fillColor=#647687;fontColor=#ffffff;" parent="1" vertex="1">
          <mxGeometry x="-164.8" y="306.82" width="172.75" height="65" as="geometry" />
        </mxCell>
        <mxCell id="YMpywW8aHW3HMsSgRhSE-3" value="" style="edgeStyle=orthogonalEdgeStyle;rounded=0;orthogonalLoop=1;jettySize=auto;html=1;exitX=0;exitY=0.75;exitDx=0;exitDy=0;entryX=0.379;entryY=0.991;entryDx=0;entryDy=0;entryPerimeter=0;" parent="1" source="YMpywW8aHW3HMsSgRhSE-1" target="YMpywW8aHW3HMsSgRhSE-2" edge="1">
          <mxGeometry relative="1" as="geometry">
            <Array as="points">
              <mxPoint x="-180" y="183" />
              <mxPoint x="-180" y="318" />
            </Array>
            <mxPoint x="-276" y="337" as="sourcePoint" />
            <mxPoint x="-102" y="284" as="targetPoint" />
          </mxGeometry>
        </mxCell>
        <mxCell id="YMpywW8aHW3HMsSgRhSE-4" value="" style="edgeStyle=orthogonalEdgeStyle;rounded=0;orthogonalLoop=1;jettySize=auto;html=1;entryX=0.379;entryY=0.991;entryDx=0;entryDy=0;entryPerimeter=0;" parent="1" edge="1">
          <mxGeometry relative="1" as="geometry">
            <Array as="points">
              <mxPoint x="-250" y="358" />
            </Array>
            <mxPoint x="-410" y="460" as="sourcePoint" />
            <mxPoint x="-110" y="358" as="targetPoint" />
          </mxGeometry>
        </mxCell>
        <mxCell id="YMpywW8aHW3HMsSgRhSE-5" value="" style="edgeStyle=orthogonalEdgeStyle;rounded=0;orthogonalLoop=1;jettySize=auto;html=1;entryX=0.379;entryY=0.991;entryDx=0;entryDy=0;entryPerimeter=0;" parent="1" edge="1">
          <mxGeometry relative="1" as="geometry">
            <Array as="points">
              <mxPoint x="500" y="630" />
              <mxPoint x="-160" y="630" />
              <mxPoint x="-160" y="398" />
            </Array>
            <mxPoint x="500" y="580" as="sourcePoint" />
            <mxPoint x="-110" y="398.01" as="targetPoint" />
          </mxGeometry>
        </mxCell>
        <mxCell id="YMpywW8aHW3HMsSgRhSE-6" value="" style="edgeStyle=orthogonalEdgeStyle;rounded=0;orthogonalLoop=1;jettySize=auto;html=1;exitX=0.5;exitY=0;exitDx=0;exitDy=0;" parent="1" source="YMpywW8aHW3HMsSgRhSE-2" edge="1">
          <mxGeometry relative="1" as="geometry">
            <Array as="points">
              <mxPoint y="339" />
            </Array>
            <mxPoint x="-310" y="526.5" as="sourcePoint" />
            <mxPoint x="150" y="340" as="targetPoint" />
          </mxGeometry>
        </mxCell>
        <mxCell id="YMpywW8aHW3HMsSgRhSE-7" value="" style="edgeStyle=orthogonalEdgeStyle;rounded=0;orthogonalLoop=1;jettySize=auto;html=1;entryX=1;entryY=0.25;entryDx=0;entryDy=0;" parent="1" target="YMpywW8aHW3HMsSgRhSE-1" edge="1">
          <mxGeometry relative="1" as="geometry">
            <Array as="points">
              <mxPoint x="220" y="134" />
              <mxPoint y="134" />
            </Array>
            <mxPoint x="220" y="280" as="sourcePoint" />
            <mxPoint x="325" y="67.48000000000002" as="targetPoint" />
          </mxGeometry>
        </mxCell>
        <mxCell id="YMpywW8aHW3HMsSgRhSE-8" style="edgeStyle=orthogonalEdgeStyle;rounded=0;orthogonalLoop=1;jettySize=auto;html=1;strokeColor=#3333FF;entryX=0.25;entryY=0;entryDx=0;entryDy=0;endArrow=classic;endFill=1;exitX=1.005;exitY=0.374;exitDx=0;exitDy=0;exitPerimeter=0;" parent="1" target="YMpywW8aHW3HMsSgRhSE-1" edge="1">
          <mxGeometry relative="1" as="geometry">
            <mxPoint x="-69.99" y="109.5" as="targetPoint" />
            <mxPoint x="725.4599999999998" y="75.22000000000003" as="sourcePoint" />
            <Array as="points">
              <mxPoint x="735" y="75" />
              <mxPoint x="735" y="-120" />
              <mxPoint x="-120" y="-120" />
            </Array>
          </mxGeometry>
        </mxCell>
        <mxCell id="YMpywW8aHW3HMsSgRhSE-9" style="edgeStyle=orthogonalEdgeStyle;rounded=0;orthogonalLoop=1;jettySize=auto;html=1;strokeColor=#3333FF;entryX=0.5;entryY=0;entryDx=0;entryDy=0;endArrow=classic;endFill=1;" parent="1" target="YMpywW8aHW3HMsSgRhSE-1" edge="1">
          <mxGeometry relative="1" as="geometry">
            <mxPoint x="45.010000000000005" y="-54" as="targetPoint" />
            <mxPoint x="750" y="-70" as="sourcePoint" />
            <Array as="points">
              <mxPoint x="750" y="-70" />
              <mxPoint x="750" y="-140" />
              <mxPoint x="-90" y="-140" />
            </Array>
          </mxGeometry>
        </mxCell>
        <mxCell id="YMpywW8aHW3HMsSgRhSE-11" value="" style="edgeStyle=orthogonalEdgeStyle;rounded=0;orthogonalLoop=1;jettySize=auto;html=1;entryX=0;entryY=0.25;entryDx=0;entryDy=0;" parent="1" target="YMpywW8aHW3HMsSgRhSE-1" edge="1">
          <mxGeometry relative="1" as="geometry">
            <Array as="points">
              <mxPoint x="-250" y="134" />
            </Array>
            <mxPoint x="-250" y="360" as="sourcePoint" />
            <mxPoint x="-100" y="368" as="targetPoint" />
          </mxGeometry>
        </mxCell>
        <mxCell id="YMpywW8aHW3HMsSgRhSE-12" value="" style="edgeStyle=orthogonalEdgeStyle;rounded=0;orthogonalLoop=1;jettySize=auto;html=1;exitX=0.331;exitY=1;exitDx=0;exitDy=0;entryX=0.018;entryY=0.898;entryDx=0;entryDy=0;exitPerimeter=0;entryPerimeter=0;" parent="1" source="YMpywW8aHW3HMsSgRhSE-1" target="YMpywW8aHW3HMsSgRhSE-2" edge="1">
          <mxGeometry relative="1" as="geometry">
            <Array as="points">
              <mxPoint x="-110" y="220" />
              <mxPoint x="-104" y="220" />
              <mxPoint x="-104" y="250" />
              <mxPoint x="-104" y="250" />
            </Array>
            <mxPoint x="-140" y="193" as="sourcePoint" />
            <mxPoint x="-100" y="328" as="targetPoint" />
          </mxGeometry>
        </mxCell>
        <mxCell id="YMpywW8aHW3HMsSgRhSE-13" value="" style="edgeStyle=orthogonalEdgeStyle;rounded=0;orthogonalLoop=1;jettySize=auto;html=1;exitX=0.542;exitY=1.004;exitDx=0;exitDy=0;entryX=0;entryY=0.5;entryDx=0;entryDy=0;exitPerimeter=0;" parent="1" source="YMpywW8aHW3HMsSgRhSE-1" target="YMpywW8aHW3HMsSgRhSE-2" edge="1">
          <mxGeometry relative="1" as="geometry">
            <Array as="points">
              <mxPoint x="-80" y="208" />
              <mxPoint x="-80" y="260" />
              <mxPoint x="-78" y="260" />
            </Array>
            <mxPoint x="-100" y="207.5" as="sourcePoint" />
            <mxPoint x="-95" y="255.5" as="targetPoint" />
          </mxGeometry>
        </mxCell>
        <mxCell id="YMpywW8aHW3HMsSgRhSE-14" value="" style="edgeStyle=orthogonalEdgeStyle;rounded=0;orthogonalLoop=1;jettySize=auto;html=1;exitX=0.708;exitY=1.003;exitDx=0;exitDy=0;entryX=0;entryY=0;entryDx=0;entryDy=0;exitPerimeter=0;" parent="1" source="YMpywW8aHW3HMsSgRhSE-1" target="YMpywW8aHW3HMsSgRhSE-2" edge="1">
          <mxGeometry relative="1" as="geometry">
            <Array as="points">
              <mxPoint x="-65" y="220" />
            </Array>
            <mxPoint x="-87.75" y="207" as="sourcePoint" />
            <mxPoint x="-82.75" y="255" as="targetPoint" />
          </mxGeometry>
        </mxCell>
        <mxCell id="YMpywW8aHW3HMsSgRhSE-15" value="MP_1" style="text;html=1;align=center;verticalAlign=middle;resizable=0;points=[];autosize=1;strokeColor=none;fillColor=none;" parent="1" vertex="1">
          <mxGeometry x="-70" y="234" width="50" height="30" as="geometry" />
        </mxCell>
        <mxCell id="YMpywW8aHW3HMsSgRhSE-16" value="MP_2" style="text;html=1;align=center;verticalAlign=middle;resizable=0;points=[];autosize=1;strokeColor=none;fillColor=none;" parent="1" vertex="1">
          <mxGeometry x="-100" y="225" width="50" height="30" as="geometry" />
        </mxCell>
        <mxCell id="YMpywW8aHW3HMsSgRhSE-17" value="Branch_sel" style="text;html=1;align=center;verticalAlign=middle;resizable=0;points=[];autosize=1;strokeColor=none;fillColor=none;" parent="1" vertex="1">
          <mxGeometry x="-190" y="204" width="80" height="30" as="geometry" />
        </mxCell>
        <mxCell id="YMpywW8aHW3HMsSgRhSE-18" value="" style="edgeStyle=orthogonalEdgeStyle;rounded=0;orthogonalLoop=1;jettySize=auto;html=1;entryX=0.114;entryY=0.736;entryDx=0;entryDy=0;entryPerimeter=0;" parent="1" edge="1">
          <mxGeometry relative="1" as="geometry">
            <Array as="points">
              <mxPoint x="25" y="215" />
              <mxPoint x="25" y="413" />
              <mxPoint x="22" y="413" />
              <mxPoint x="22" y="790" />
              <mxPoint x="20" y="790" />
              <mxPoint x="20" y="794" />
            </Array>
            <mxPoint x="-80" y="215" as="sourcePoint" />
            <mxPoint x="23.340000000000146" y="793.9100000000001" as="targetPoint" />
          </mxGeometry>
        </mxCell>
        <mxCell id="YMpywW8aHW3HMsSgRhSE-19" value="" style="edgeStyle=orthogonalEdgeStyle;rounded=0;orthogonalLoop=1;jettySize=auto;html=1;entryX=0.182;entryY=0.244;entryDx=0;entryDy=0;entryPerimeter=0;" parent="1" edge="1">
          <mxGeometry relative="1" as="geometry">
            <Array as="points">
              <mxPoint x="50" y="220" />
              <mxPoint x="50" y="418" />
              <mxPoint x="48" y="418" />
              <mxPoint x="48" y="780" />
              <mxPoint x="49" y="780" />
            </Array>
            <mxPoint x="-65" y="220" as="sourcePoint" />
            <mxPoint x="48.8599999999999" y="798.3299999999997" as="targetPoint" />
          </mxGeometry>
        </mxCell>
        <mxCell id="YMpywW8aHW3HMsSgRhSE-21" style="edgeStyle=orthogonalEdgeStyle;rounded=0;orthogonalLoop=1;jettySize=auto;html=1;entryX=0.75;entryY=1;entryDx=0;entryDy=0;exitX=1;exitY=0.5;exitDx=0;exitDy=0;exitPerimeter=0;" parent="1" source="YMpywW8aHW3HMsSgRhSE-20" target="nZXYA9FFozqnE7sLYy3P-6" edge="1">
          <mxGeometry relative="1" as="geometry">
            <Array as="points">
              <mxPoint x="33" y="860" />
              <mxPoint x="181" y="860" />
            </Array>
          </mxGeometry>
        </mxCell>
        <mxCell id="YMpywW8aHW3HMsSgRhSE-20" value="" style="verticalLabelPosition=bottom;shadow=0;dashed=0;align=center;html=1;verticalAlign=top;shape=mxgraph.electrical.logic_gates.logic_gate;operation=or;rotation=90;" parent="1" vertex="1">
          <mxGeometry y="789" width="65" height="60" as="geometry" />
        </mxCell>
        <mxCell id="YMpywW8aHW3HMsSgRhSE-22" value="&lt;font style=&quot;font-size: 8px;&quot;&gt;CLR&lt;/font&gt;" style="text;html=1;align=center;verticalAlign=middle;resizable=0;points=[];autosize=1;strokeColor=none;fillColor=none;" parent="1" vertex="1">
          <mxGeometry x="160" y="775" width="40" height="30" as="geometry" />
        </mxCell>
        <mxCell id="YMpywW8aHW3HMsSgRhSE-23" value="&lt;font style=&quot;font-size: 8px;&quot;&gt;EN&lt;/font&gt;" style="text;html=1;align=center;verticalAlign=middle;resizable=0;points=[];autosize=1;strokeColor=none;fillColor=none;" parent="1" vertex="1">
          <mxGeometry x="146" y="775" width="30" height="30" as="geometry" />
        </mxCell>
        <mxCell id="-CahJ4fOLo3aw9hCtRoB-1" value="" style="edgeStyle=orthogonalEdgeStyle;rounded=0;orthogonalLoop=1;jettySize=auto;html=1;entryX=0.718;entryY=-0.042;entryDx=0;entryDy=0;entryPerimeter=0;" edge="1" parent="1" target="YMpywW8aHW3HMsSgRhSE-1">
          <mxGeometry relative="1" as="geometry">
            <Array as="points">
              <mxPoint x="220" y="130" />
              <mxPoint x="420" y="130" />
              <mxPoint x="420" y="80" />
              <mxPoint x="-64" y="80" />
            </Array>
            <mxPoint x="220" y="140" as="sourcePoint" />
            <mxPoint x="-30" y="-6.52000000000001" as="targetPoint" />
          </mxGeometry>
        </mxCell>
        <mxCell id="nZXYA9FFozqnE7sLYy3P-9" value="&lt;font style=&quot;font-size: 10px;&quot;&gt;Decode&lt;/font&gt;" style="rounded=0;whiteSpace=wrap;html=1;strokeColor=#82b366;fillColor=#d5e8d4;" parent="1" vertex="1">
          <mxGeometry x="340" y="-100" width="40" height="902" as="geometry" />
        </mxCell>
        <mxCell id="nZXYA9FFozqnE7sLYy3P-6" value="Fetch&lt;br&gt;PC" style="rounded=0;whiteSpace=wrap;html=1;strokeColor=#b85450;fillColor=#f8cecc;" parent="1" vertex="1">
          <mxGeometry x="151" y="-100" width="40" height="902" as="geometry" />
        </mxCell>
        <mxCell id="-CahJ4fOLo3aw9hCtRoB-2" value="PC_D" style="text;html=1;align=center;verticalAlign=middle;resizable=0;points=[];autosize=1;strokeColor=none;fillColor=none;" vertex="1" parent="1">
          <mxGeometry x="380" y="49.51" width="60" height="30" as="geometry" />
        </mxCell>
        <mxCell id="-CahJ4fOLo3aw9hCtRoB-4" value="&lt;font color=&quot;#ffffff&quot;&gt;Prediction&amp;nbsp;&lt;br&gt;Mux&lt;/font&gt;" style="text;html=1;align=center;verticalAlign=middle;resizable=0;points=[];autosize=1;strokeColor=none;fillColor=none;" vertex="1" parent="1">
          <mxGeometry x="-118.43" y="318.57" width="80" height="40" as="geometry" />
        </mxCell>
        <mxCell id="-CahJ4fOLo3aw9hCtRoB-5" value="&lt;font style=&quot;font-size: 10px;&quot;&gt;Prediction_mux_out&lt;/font&gt;" style="text;html=1;align=center;verticalAlign=middle;resizable=0;points=[];autosize=1;strokeColor=none;fillColor=none;" vertex="1" parent="1">
          <mxGeometry x="45" y="308" width="110" height="30" as="geometry" />
        </mxCell>
      </root>
    </mxGraphModel>
  </diagram>
</mxfile>
